<?xml version="1.0" encoding="UTF-8" standalone="no"?>
<!-- Generator: Adobe Illustrator 16.0.0, SVG Export Plug-In . SVG Version: 6.00 Build 0)  -->

<svg
   xmlns:dc="http://purl.org/dc/elements/1.1/"
   xmlns:cc="http://creativecommons.org/ns#"
   xmlns:rdf="http://www.w3.org/1999/02/22-rdf-syntax-ns#"
   xmlns:svg="http://www.w3.org/2000/svg"
   xmlns="http://www.w3.org/2000/svg"
   xmlns:sodipodi="http://sodipodi.sourceforge.net/DTD/sodipodi-0.dtd"
   xmlns:inkscape="http://www.inkscape.org/namespaces/inkscape"
   version="1.1"
   id="Capa_1"
   x="0px"
   y="0px"
   width="438.533px"
   height="438.533px"
   viewBox="0 0 438.533 438.533"
   style="enable-background:new 0 0 438.533 438.533;"
   xml:space="preserve"
   sodipodi:docname="arrows 20180525.svg"
   inkscape:version="0.92.1 r15371"><metadata
     id="metadata41"><rdf:RDF><cc:Work
         rdf:about=""><dc:format>image/svg+xml</dc:format><dc:type
           rdf:resource="http://purl.org/dc/dcmitype/StillImage" /><dc:title></dc:title></cc:Work></rdf:RDF></metadata><defs
     id="defs39" /><sodipodi:namedview
     pagecolor="#ffffff"
     bordercolor="#666666"
     borderopacity="1"
     objecttolerance="10"
     gridtolerance="10"
     guidetolerance="10"
     inkscape:pageopacity="0"
     inkscape:pageshadow="2"
     inkscape:window-width="1597"
     inkscape:window-height="955"
     id="namedview37"
     showgrid="false"
     inkscape:pagecheckerboard="true"
     inkscape:zoom="0.50383782"
     inkscape:cx="-131.71882"
     inkscape:cy="219.26649"
     inkscape:window-x="0"
     inkscape:window-y="0"
     inkscape:window-maximized="0"
     inkscape:current-layer="Capa_1" /><path
     inkscape:connector-curvature="0"
     id="path2"
     d="M 409.133,109.203 C 389.525,75.611 362.928,49.014 329.335,29.407 295.736,9.801 259.058,0 219.273,0 179.492,0 142.803,9.801 109.21,29.407 75.615,49.011 49.018,75.608 29.41,109.203 9.801,142.8 0,179.489 0,219.267 c 0,39.78 9.804,76.463 29.407,110.062 19.607,33.592 46.204,60.189 79.799,79.798 33.597,19.605 70.283,29.407 110.063,29.407 39.78,0 76.47,-9.802 110.065,-29.407 33.593,-19.602 60.189,-46.206 79.795,-79.798 19.603,-33.596 29.403,-70.284 29.403,-110.062 0.001,-39.782 -9.8,-76.472 -29.399,-110.064 z m -47.684,122.628 -25.981,25.981 c -3.613,3.613 -7.901,5.42 -12.847,5.42 -4.948,0 -9.229,-1.807 -12.847,-5.42 L 255.82,203.851 v 143.32 c 0,4.948 -1.813,9.232 -5.428,12.847 -3.613,3.62 -7.898,5.427 -12.847,5.427 h -36.547 c -4.948,0 -9.231,-1.807 -12.847,-5.427 -3.617,-3.614 -5.426,-7.898 -5.426,-12.847 v -143.32 l -53.959,53.961 c -3.431,3.425 -7.708,5.133 -12.85,5.133 -5.14,0 -9.423,-1.708 -12.85,-5.133 L 77.085,231.831 c -3.422,-3.429 -5.137,-7.714 -5.137,-12.852 0,-5.137 1.709,-9.419 5.137,-12.847 L 180.441,102.779 206.422,76.798 c 3.427,-3.425 7.71,-5.14 12.847,-5.14 5.142,0 9.423,1.715 12.849,5.14 l 25.98,25.981 103.35,103.353 c 3.432,3.427 5.14,7.71 5.14,12.847 10e-4,5.138 -1.707,9.423 -5.139,12.852 z"
     style="fill:#007bb7;fill-opacity:1;stroke:#ffffff;stroke-opacity:1;stroke-width:24;stroke-miterlimit:4;stroke-dasharray:none" /><g
     id="g6" /><g
     id="g8" /><g
     id="g10" /><g
     id="g12" /><g
     id="g14" /><g
     id="g16" /><g
     id="g18" /><g
     id="g20" /><g
     id="g22" /><g
     id="g24" /><g
     id="g26" /><g
     id="g28" /><g
     id="g30" /><g
     id="g32" /><g
     id="g34" /></svg>