<?xml version="1.0" encoding="UTF-8" standalone="no"?>
<!-- Created with Inkscape (http://www.inkscape.org/) -->

<svg
   xmlns:dc="http://purl.org/dc/elements/1.1/"
   xmlns:cc="http://creativecommons.org/ns#"
   xmlns:rdf="http://www.w3.org/1999/02/22-rdf-syntax-ns#"
   xmlns:svg="http://www.w3.org/2000/svg"
   xmlns="http://www.w3.org/2000/svg"
   xmlns:sodipodi="http://sodipodi.sourceforge.net/DTD/sodipodi-0.dtd"
   xmlns:inkscape="http://www.inkscape.org/namespaces/inkscape"
   width="86.337387mm"
   height="39.267532mm"
   viewBox="0 0 86.337387 39.267532"
   version="1.1"
   id="svg4645"
   inkscape:version="0.92.1 r15371"
   sodipodi:docname="clown-fish-silhouette-blue.svg">
  <defs
     id="defs4639" />
  <sodipodi:namedview
     id="base"
     pagecolor="#ffffff"
     bordercolor="#666666"
     borderopacity="1.0"
     inkscape:pageopacity="0.0"
     inkscape:pageshadow="2"
     inkscape:zoom="4.3853393"
     inkscape:cx="163.15727"
     inkscape:cy="74.20634"
     inkscape:document-units="mm"
     inkscape:current-layer="layer1"
     showgrid="false"
     fit-margin-top="0"
     fit-margin-left="0"
     fit-margin-right="0"
     fit-margin-bottom="0"
     inkscape:pagecheckerboard="true"
     inkscape:window-width="1920"
     inkscape:window-height="1013"
     inkscape:window-x="-9"
     inkscape:window-y="-9"
     inkscape:window-maximized="1" />
  <metadata
     id="metadata4642">
    <rdf:RDF>
      <cc:Work
         rdf:about="">
        <dc:format>image/svg+xml</dc:format>
        <dc:type
           rdf:resource="http://purl.org/dc/dcmitype/StillImage" />
        <dc:title></dc:title>
      </cc:Work>
    </rdf:RDF>
  </metadata>
  <g
     inkscape:label="Layer 1"
     inkscape:groupmode="layer"
     id="layer1"
     transform="translate(-13.527734,-188.9198)">
    <g
       id="g86"
       transform="matrix(0.26458333,0,0,0.26458333,-33.737184,34.262058)"
       style="fill:#1972b0;fill-opacity:1;stroke:#1972b0;stroke-opacity:1">
      <path
         style="fill:#1972b0;fill-opacity:1;stroke:#1972b0;stroke-opacity:1"
         inkscape:connector-curvature="0"
         d="m 210.803,631.409 c 15.401,8.532 19.761,52.454 0,60.358 -11.897,4.759 -32.922,-24.812 -30.748,-35.683 1.394,-6.973 24.918,-31.522 29.989,-23.915"
         id="path82" />
      <path
         style="fill-opacity:1;stroke:#1972b0;stroke-width:2.5;stroke-linecap:round;stroke-linejoin:round;fill:#1972b0;stroke-opacity:1"
         inkscape:connector-curvature="0"
         d="m 210.803,631.409 c 15.401,8.532 19.761,52.454 0,60.358 -11.897,4.759 -32.922,-24.812 -30.748,-35.683 1.394,-6.973 24.918,-31.522 29.989,-23.915"
         id="path84" />
    </g>
    <g
       id="g92"
       transform="matrix(0.26458333,0,0,0.26458333,-33.737184,34.262058)"
       style="stroke:#1972b0;stroke-opacity:1;fill:#1972b0;fill-opacity:1">
      <path
         style="fill:#1972b0;stroke:#1972b0;stroke-opacity:1;fill-opacity:1"
         inkscape:connector-curvature="0"
         d="m 374.794,613.947 c 58.661,-1.357 -23.188,-21.252 -41.377,-18.221 -2.632,0.439 -14.322,5.85 -13.209,10.301 0.547,2.191 8.42,5.936 10.172,9.439 8.12,16.24 6.813,46.808 3.796,64.913 -1.632,9.792 -0.822,25.281 -7.592,33.405 -0.165,0.198 -2.878,2.356 -2.838,2.474 0.381,1.144 11.806,3.747 13.087,3.98 10.479,1.905 57.576,7.965 62.256,-6.074 2.183,-6.548 -23.915,-12.928 -23.915,-13.286 0,-2.776 5.794,-10.79 6.833,-14.425 2.568,-8.991 3.216,-22.882 2.277,-32.267 -1.513,-15.13 -9.49,-28.39 -9.49,-43.275"
         id="path88" />
      <path
         style="fill-opacity:1;stroke:#1972b0;stroke-width:2.5;stroke-linecap:round;stroke-linejoin:round;stroke-opacity:1;fill:#1972b0"
         inkscape:connector-curvature="0"
         d="m 374.794,613.947 c 58.661,-1.357 -23.188,-21.252 -41.377,-18.221 -2.632,0.439 -14.322,5.85 -13.209,10.301 0.547,2.191 8.42,5.936 10.172,9.439 8.12,16.24 6.813,46.808 3.796,64.913 -1.632,9.792 -0.822,25.281 -7.592,33.405 -0.165,0.198 -2.878,2.356 -2.838,2.474 0.381,1.144 11.806,3.747 13.087,3.98 10.479,1.905 57.576,7.965 62.256,-6.074 2.183,-6.548 -23.915,-12.928 -23.915,-13.286 0,-2.776 5.794,-10.79 6.833,-14.425 2.568,-8.991 3.216,-22.882 2.277,-32.267 -1.513,-15.13 -9.49,-28.39 -9.49,-43.275"
         id="path90" />
    </g>
    <g
       id="g98"
       transform="matrix(0.26458333,0,0,0.26458333,-33.737184,34.262058)"
       style="stroke:#1972b0;stroke-opacity:1;fill:#1972b0;fill-opacity:1">
      <path
         style="fill:#1972b0;stroke:#1972b0;stroke-opacity:1;fill-opacity:1"
         inkscape:connector-curvature="0"
         d="m 250.551,660.694 c 11.667,5.1 64.924,31.777 67.57,5.315 3.174,-31.733 -39.056,-18.616 -55.043,-13.287 -1.759,0.587 -15.184,4.148 -15.184,5.694 0,1.283 3.378,2.012 4.175,2.278"
         id="path94" />
      <path
         style="fill-opacity:1;stroke:#1972b0;stroke-width:2.5;stroke-linecap:round;stroke-linejoin:round;stroke-opacity:1;fill:#1972b0"
         inkscape:connector-curvature="0"
         d="m 250.551,660.694 c 11.667,5.1 64.924,31.777 67.57,5.315 3.174,-31.733 -39.056,-18.616 -55.043,-13.287 -1.759,0.587 -15.184,4.148 -15.184,5.694 0,1.283 3.378,2.012 4.175,2.278"
         id="path96" />
    </g>
    <g
       id="g104"
       transform="matrix(0.26458333,0,0,0.26458333,-33.737184,34.262058)">
      <path
         style="fill:#383737"
         inkscape:connector-curvature="0"
         d="m 276.475,609.392 v 0"
         id="path100" />
      <path
         style="fill-opacity:0;stroke:#383737;stroke-width:2.5;stroke-linecap:round;stroke-linejoin:round"
         inkscape:connector-curvature="0"
         d="m 276.475,609.392 v 0"
         id="path102" />
    </g>
    <g
       id="g110"
       transform="matrix(0.26458333,0,0,0.26458333,-33.737184,34.262058)"
       style="stroke:#1972b0;stroke-opacity:1;fill:#1972b0;fill-opacity:1">
      <path
         style="fill:#1972b0;stroke:#1972b0;stroke-opacity:1;fill-opacity:1"
         inkscape:connector-curvature="0"
         d="m 277.994,609.013 c 6.2,-4.411 15.722,-5.779 20.499,-12.148 6.066,-8.088 -10.951,-11.613 -15.185,-11.009 -16.279,2.326 -27.236,14.71 -38.34,25.814 -2.268,2.268 -10.297,4.411 -11.009,7.972 -0.264,1.319 6.165,8.623 6.833,10.629 2.896,8.688 0.708,21.946 -0.759,30.748 -2.207,13.241 1.014,13.157 -4.935,25.054 -0.64,1.28 -9.322,17.007 -9.019,18.221 0.228,0.91 1.746,2.925 2.566,3.417 9.684,5.811 19.13,15.915 30.368,18.98 12.21,3.33 46.999,10.76 54.664,-3.037 9.456,-17.021 -46.692,-3.347 -46.692,-6.833 0,-7.572 18.931,-28.157 9.87,-40.238 -0.091,-0.121 -25.576,-7.581 -30.748,-14.046 -4.695,-5.868 -0.145,-9.418 4.555,-11.768 21.822,-10.911 45.43,-7.586 23.156,-40.997"
         id="path106" />
      <path
         style="fill-opacity:1;stroke:#1972b0;stroke-width:2.5;stroke-linecap:round;stroke-linejoin:round;stroke-opacity:1;fill:#1972b0"
         inkscape:connector-curvature="0"
         d="m 277.994,609.013 c 6.2,-4.411 15.722,-5.779 20.499,-12.148 6.066,-8.088 -10.951,-11.613 -15.185,-11.009 -16.279,2.326 -27.236,14.71 -38.34,25.814 -2.268,2.268 -10.297,4.411 -11.009,7.972 -0.264,1.319 6.165,8.623 6.833,10.629 2.896,8.688 0.708,21.946 -0.759,30.748 -2.207,13.241 1.014,13.157 -4.935,25.054 -0.64,1.28 -9.322,17.007 -9.019,18.221 0.228,0.91 1.746,2.925 2.566,3.417 9.684,5.811 19.13,15.915 30.368,18.98 12.21,3.33 46.999,10.76 54.664,-3.037 9.456,-17.021 -46.692,-3.347 -46.692,-6.833 0,-7.572 18.931,-28.157 9.87,-40.238 -0.091,-0.121 -25.576,-7.581 -30.748,-14.046 -4.695,-5.868 -0.145,-9.418 4.555,-11.768 21.822,-10.911 45.43,-7.586 23.156,-40.997"
         id="path108" />
    </g>
    <g
       id="g116"
       transform="matrix(0.26458333,0,0,0.26458333,-33.737184,34.262058)"
       style="stroke:#1972b0;stroke-opacity:1;fill:#1972b0;fill-opacity:1">
      <path
         style="fill:#1972b0;stroke:#1972b0;stroke-opacity:1;fill-opacity:1"
         inkscape:connector-curvature="0"
         d="m 406,639 c 0.439,2.636 -2.006,3.851 -0.884,6.467 4.457,10.4 3.856,22.118 0.384,32.533 -1.008,3.023 -5.007,12.213 -3.494,10.7 28.267,-28.267 58.212,9.515 63.994,10.8 23.283,5.174 39.728,-21.222 37.5,-43.5 -1.752,-17.516 -37.767,-37.655 -53,-27.5 -7.166,4.778 -11.447,16.362 -20,18.5 -11.221,2.805 -22.299,-24.42 -28,-21 -4.495,2.697 1.104,14.155 1.685,17.64"
         id="path112" />
      <path
         style="fill-opacity:1;stroke:#1972b0;stroke-width:2.5;stroke-linecap:round;stroke-linejoin:round;stroke-opacity:1;fill:#1972b0"
         inkscape:connector-curvature="0"
         d="m 406,639 c 0.439,2.636 -2.006,3.851 -0.884,6.467 4.457,10.4 3.856,22.118 0.384,32.533 -1.008,3.023 -5.007,12.213 -3.494,10.7 28.267,-28.267 58.212,9.515 63.994,10.8 23.283,5.174 39.728,-21.222 37.5,-43.5 -1.752,-17.516 -37.767,-37.655 -53,-27.5 -7.166,4.778 -11.447,16.362 -20,18.5 -11.221,2.805 -22.299,-24.42 -28,-21 -4.495,2.697 1.104,14.155 1.685,17.64"
         id="path114" />
    </g>
    <g
       id="g122"
       transform="matrix(0.26458333,0,0,0.26458333,-33.737184,34.262058)"
       style="fill:#1972b0;fill-opacity:1">
      <path
         style="fill:#1972b0;fill-opacity:1"
         inkscape:connector-curvature="0"
         d="m 206.313,659.699 c -2.489,0 -4.507,-2.389 -4.507,-5.337 0,-2.948 2.018,-5.338 4.507,-5.338 2.489,0 4.507,2.39 4.507,5.338 0,2.948 -2.018,5.337 -4.507,5.337 z"
         id="path118" />
      <path
         style="fill-opacity:1;stroke:#ffffff;stroke-width:4;fill:#1972b0"
         inkscape:connector-curvature="0"
         d="m 206.313,659.699 c -2.489,0 -4.507,-2.389 -4.507,-5.337 0,-2.948 2.018,-5.338 4.507,-5.338 2.489,0 4.507,2.39 4.507,5.338 0,2.948 -2.018,5.337 -4.507,5.337 z"
         id="path120" />
    </g>
  </g>
</svg>
