<?xml version="1.0" encoding="UTF-8" standalone="no"?>
<!-- Created with Inkscape (http://www.inkscape.org/) -->

<svg
   xmlns:dc="http://purl.org/dc/elements/1.1/"
   xmlns:cc="http://creativecommons.org/ns#"
   xmlns:rdf="http://www.w3.org/1999/02/22-rdf-syntax-ns#"
   xmlns:svg="http://www.w3.org/2000/svg"
   xmlns="http://www.w3.org/2000/svg"
   xmlns:sodipodi="http://sodipodi.sourceforge.net/DTD/sodipodi-0.dtd"
   xmlns:inkscape="http://www.inkscape.org/namespaces/inkscape"
   width="105.42969mm"
   height="102.01724mm"
   viewBox="0 0 105.42969 102.01724"
   version="1.1"
   id="svg5357"
   inkscape:version="0.92.1 r15371"
   sodipodi:docname="turtle-from-above-silhouette-grey.svg">
  <defs
     id="defs5351" />
  <sodipodi:namedview
     id="base"
     pagecolor="#ffffff"
     bordercolor="#666666"
     borderopacity="1.0"
     inkscape:pageopacity="0.0"
     inkscape:pageshadow="2"
     inkscape:zoom="0.35"
     inkscape:cx="-143.61993"
     inkscape:cy="178.50278"
     inkscape:document-units="mm"
     inkscape:current-layer="layer1"
     showgrid="false"
     fit-margin-top="0"
     fit-margin-left="0"
     fit-margin-right="0"
     fit-margin-bottom="0"
     inkscape:pagecheckerboard="true"
     inkscape:window-width="1920"
     inkscape:window-height="1027"
     inkscape:window-x="-8"
     inkscape:window-y="-8"
     inkscape:window-maximized="1" />
  <metadata
     id="metadata5354">
    <rdf:RDF>
      <cc:Work
         rdf:about="">
        <dc:format>image/svg+xml</dc:format>
        <dc:type
           rdf:resource="http://purl.org/dc/dcmitype/StillImage" />
        <dc:title></dc:title>
      </cc:Work>
    </rdf:RDF>
  </metadata>
  <g
     inkscape:label="Layer 1"
     inkscape:groupmode="layer"
     id="layer1"
     transform="translate(-11.541108,-94.044949)">
    <g
       transform="matrix(0.26458333,0,0,0.26458333,-21.539614,-57.241577)"
       id="g5334">
      <path
         d="m 208.705,727.117 c -3.267,3.952 -7.218,8.427 -9.575,13.141 -7.177,14.353 5.897,82.176 13.275,95.456 4.007,7.211 10.471,15.281 17.069,20.229 5.912,4.434 10.18,9.853 15.803,14.539 10.756,8.963 43.831,21.433 57.527,23.39 21.555,3.079 66.122,-7.869 83.445,-20.861 19.09,-14.318 45.131,-29.328 61.319,-45.516 11.191,-11.19 2.323,-28.006 -0.632,-39.826 -23.291,-93.164 -111.947,-116.835 -192.808,-82.18 -15.438,6.616 -52.276,18.824 -56.895,37.297"
         id="path175"
         inkscape:connector-curvature="0"
         style="fill:#383737" />
      <path
         d="m 229.042,719.066 c -12.969,-10.815 -23.582,-42.045 -17.269,-57.828 4.57,-11.425 5.966,-22.729 10.115,-34.137 6.005,-16.516 16.08,-37.317 29.711,-48.676 4.423,-3.686 15.804,-12.877 15.804,0 0,28.061 -37.059,94.8 -13.951,129.462 z"
         id="path177"
         inkscape:connector-curvature="0"
         style="fill:#383737" />
      <path
         d="m 206.458,799.139 c -26.849,-0.411 -48.487,59.483 -45.258,82.09 2.369,16.581 9.942,30.915 13.908,46.78 1.147,4.588 17.644,32.44 22.125,29.079 3.977,-2.982 1.46,-27.905 0.633,-32.872 -0.753,-4.519 -5.598,-5.046 -6.322,-10.115 -0.699,-4.891 1.966,-13.273 2.529,-18.332 2.574,-23.165 0.942,-42.665 18.332,-60.055 z"
         id="path179"
         inkscape:connector-curvature="0"
         style="fill:#383737" />
      <path
         d="m 406.589,858.841 c 11.956,10.35 54.673,54.207 69.426,52.099 16.144,-2.306 5.066,-48.035 -2.528,-55.63 -8.913,-8.912 -28.451,-12.4 -38.671,-19.214 z"
         id="path181"
         inkscape:connector-curvature="0"
         style="fill:#383737" />
      <path
         d="m 448.732,800.964 c 20.776,12.136 34.162,8.949 53.834,5.67 2.025,-0.337 22.34,5.496 20.861,-1.896 -0.384,-1.92 -10.923,-4.293 -12.643,-5.058 -21.264,-9.45 -43.425,-19.478 -66.377,-22.757 z"
         id="path183"
         inkscape:connector-curvature="0"
         style="fill:#383737" />
      <path
         d="m 212.362,733.878 c -6.474,-0.867 -18.522,-0.919 -24.933,-2.899 -12.853,-3.969 -23.578,-14.673 -37.776,-14.934 -4.626,-0.085 -10.006,2.88 -13.62,5.598 -2.809,2.112 -6.035,4.154 -8.123,7.14 -3.954,5.654 -4.413,23.44 2.297,27.166 1.974,1.096 2.743,0.332 4.314,1.335 1.203,0.768 3.851,1.584 5.36,2.742 7.47,5.729 12.188,2.179 20.999,4.761 10.285,3.014 29.852,2.313 39.175,7.489 z"
         id="path185"
         inkscape:connector-curvature="0"
         style="fill:#383737" />
    </g>
  </g>
</svg>
