<?xml version="1.0" encoding="UTF-8" standalone="no"?>
<!-- Created with Inkscape (http://www.inkscape.org/) -->

<svg
   xmlns:dc="http://purl.org/dc/elements/1.1/"
   xmlns:cc="http://creativecommons.org/ns#"
   xmlns:rdf="http://www.w3.org/1999/02/22-rdf-syntax-ns#"
   xmlns:svg="http://www.w3.org/2000/svg"
   xmlns="http://www.w3.org/2000/svg"
   xmlns:sodipodi="http://sodipodi.sourceforge.net/DTD/sodipodi-0.dtd"
   xmlns:inkscape="http://www.inkscape.org/namespaces/inkscape"
   width="67.883827mm"
   height="53.749447mm"
   viewBox="0 0 67.883827 53.749447"
   version="1.1"
   id="svg4736"
   inkscape:version="0.92.1 r15371"
   sodipodi:docname="green-turtle-side-view-silhouette-blue.svg">
  <defs
     id="defs4730" />
  <sodipodi:namedview
     id="base"
     pagecolor="#ffffff"
     bordercolor="#666666"
     borderopacity="1.0"
     inkscape:pageopacity="0.0"
     inkscape:pageshadow="2"
     inkscape:zoom="3.8887997"
     inkscape:cx="128.2844"
     inkscape:cy="101.57374"
     inkscape:document-units="mm"
     inkscape:current-layer="layer1"
     showgrid="false"
     fit-margin-top="0"
     fit-margin-left="0"
     fit-margin-right="0"
     fit-margin-bottom="0"
     inkscape:pagecheckerboard="true"
     inkscape:window-width="1920"
     inkscape:window-height="1013"
     inkscape:window-x="-9"
     inkscape:window-y="-9"
     inkscape:window-maximized="1" />
  <metadata
     id="metadata4733">
    <rdf:RDF>
      <cc:Work
         rdf:about="">
        <dc:format>image/svg+xml</dc:format>
        <dc:type
           rdf:resource="http://purl.org/dc/dcmitype/StillImage" />
        <dc:title></dc:title>
      </cc:Work>
    </rdf:RDF>
  </metadata>
  <g
     inkscape:label="Layer 1"
     inkscape:groupmode="layer"
     id="layer1"
     transform="translate(-44.677133,-116.66694)">
    <g
       transform="matrix(0.26458333,0,0,0.26458333,-249.8617,95.334698)"
       id="g5291"
       style="fill:#1972b0;fill-opacity:1">
      <path
         d="m 1188.418,102.289 c 24.943,-1.905 44.425,13.665 65.362,24.133 19.198,9.599 37.193,24.733 52.793,39.218 7.898,7.334 46.181,40.495 44.496,52.29 -0.51,3.572 -8.781,5.858 -17.45,7.239 -8.264,1.317 -16.89,1.811 -19.504,1.811 -45.738,0 -94.825,-16.811 -122.681,-55.809 -6.521,-9.13 -19.642,-45.508 -12.895,-61.557 1.583,-3.765 4.259,-6.412 8.37,-7.325"
         id="path187"
         inkscape:connector-curvature="0"
         style="fill:#1972b0;fill-opacity:1" />
      <path
         d="m 1176.854,107.568 c -17.511,-7.024 -31.997,-35.537 -54.301,-24.385 -3.235,1.617 -6.17,6.724 -5.531,10.558 0.418,2.512 3.071,0.711 4.274,2.514 7.177,10.767 16.653,12.128 25.139,20.615 7.38,7.38 14.92,15.422 22.374,22.876 -6.095,6.702 -16.769,5.494 -24.385,9.302 -17.586,8.793 -22.07,54.789 -25.642,72.653 -0.633,3.163 -7.931,23.059 -4.777,24.636 4.827,2.413 12.293,-10.528 14.832,-13.575 4.233,-5.08 6.659,-12.563 9.553,-18.352 1.521,-3.042 3.632,-2.123 5.782,-4.273 4.93,-4.93 8.227,-13.94 11.313,-20.112 2.877,-5.754 8.943,-8.763 12.318,-13.827 2.213,-3.318 0.461,-6.972 1.257,-10.558 3.486,7.529 4.589,17.794 12.319,22.625 22.503,14.065 98.639,44.365 125.194,38.464 -4.562,13.139 48.738,60.749 58.574,56.814 2.458,-0.982 3.373,-6.162 3.017,-8.295 -0.479,-2.876 2.664,-5.047 1.257,-8.799 -3.88,-10.348 -18.023,-25.563 -27.402,-31.424 -1.992,-1.246 -4.649,-0.313 -5.782,-1.257 -4.447,-3.706 -1.762,-3.446 -6.536,-6.788 z"
         id="path189"
         inkscape:connector-curvature="0"
         style="fill:#1972b0;fill-opacity:1" />
      <path
         d="m 1343.335,222 c -1.146,1.273 19.678,21.551 19.357,21.871 -4.018,4.018 -30.806,-16.264 -34.692,-18.854 z"
         id="path191"
         inkscape:connector-curvature="0"
         style="fill:#1972b0;fill-opacity:1" />
      <path
         d="m 1132.105,88.462 c -3.256,6.17 7.859,-2.052 -1.508,0.503"
         id="path193"
         inkscape:connector-curvature="0"
         style="fill:#1972b0;fill-opacity:1" />
    </g>
  </g>
</svg>
