<?xml version="1.0" encoding="UTF-8" standalone="no"?>
<!-- Created with Inkscape (http://www.inkscape.org/) -->

<svg
   xmlns:dc="http://purl.org/dc/elements/1.1/"
   xmlns:cc="http://creativecommons.org/ns#"
   xmlns:rdf="http://www.w3.org/1999/02/22-rdf-syntax-ns#"
   xmlns:svg="http://www.w3.org/2000/svg"
   xmlns="http://www.w3.org/2000/svg"
   xmlns:sodipodi="http://sodipodi.sourceforge.net/DTD/sodipodi-0.dtd"
   xmlns:inkscape="http://www.inkscape.org/namespaces/inkscape"
   width="260.3537"
   height="212.45586"
   viewBox="0 0 68.885248 56.21228"
   version="1.1"
   id="svg4734"
   inkscape:version="0.92.1 r15371"
   sodipodi:docname="green-turtle-outline-black.svg">
  <defs
     id="defs4728" />
  <sodipodi:namedview
     id="base"
     pagecolor="#ffffff"
     bordercolor="#666666"
     borderopacity="1.0"
     inkscape:pageopacity="0.0"
     inkscape:pageshadow="2"
     inkscape:zoom="3.8972799"
     inkscape:cx="130.17685"
     inkscape:cy="106.22795"
     inkscape:document-units="mm"
     inkscape:current-layer="layer1"
     showgrid="false"
     inkscape:pagecheckerboard="true"
     inkscape:window-width="1920"
     inkscape:window-height="1027"
     inkscape:window-x="-8"
     inkscape:window-y="-8"
     inkscape:window-maximized="1"
     units="px"
     fit-margin-top="0"
     fit-margin-left="0"
     fit-margin-right="0"
     fit-margin-bottom="0" />
  <metadata
     id="metadata4731">
    <rdf:RDF>
      <cc:Work
         rdf:about="">
        <dc:format>image/svg+xml</dc:format>
        <dc:type
           rdf:resource="http://purl.org/dc/dcmitype/StillImage" />
        <dc:title></dc:title>
      </cc:Work>
    </rdf:RDF>
  </metadata>
  <g
     inkscape:label="Layer 1"
     inkscape:groupmode="layer"
     id="layer1"
     transform="translate(-60.051422,-135.09029)">
    <path
       d="m 79.49549,141.34801 c 6.599767,-0.50403 11.754379,3.61553 17.29396,6.38519 5.07921,2.53973 9.84065,6.54394 13.96788,10.37643 2.08995,1.94045 12.21899,10.7143 11.77317,13.83506 -0.26353,1.84573 -8.36031,2.39448 -9.77768,2.39448 -12.10151,0 -25.088849,-4.44791 -32.459082,-14.7664 -2.13016,-2.98185 -6.922029,-16.95265 -1.19724,-18.22476"
       id="path153"
       inkscape:connector-curvature="0"
       style="fill:none;fill-opacity:1;stroke:#000000;stroke-width:1.05833328;stroke-linecap:round;stroke-linejoin:round" />
    <path
       d="m 76.435849,142.74474 c -4.633119,-1.85843 -8.465873,-9.40276 -14.36714,-6.45186 -0.855662,0.42783 -1.632479,1.77906 -1.463146,2.79347 0.110596,0.66437 0.812536,0.18812 1.130565,0.66516 1.899179,2.84877 4.406106,3.20887 6.651625,5.45412 1.952625,1.95289 3.947583,4.08067 5.919787,6.05288"
       id="path155"
       inkscape:connector-curvature="0"
       style="fill:none;fill-opacity:1;stroke:#000000;stroke-width:1.05833328;stroke-linecap:round;stroke-linejoin:round" />
    <path
       d="m 75.305284,150.92592 c -1.612635,1.77324 -4.437062,1.45362 -6.452129,2.46116 -4.652698,2.32648 -5.83909,14.49625 -6.784446,19.22277 -0.167481,0.83688 -2.098146,6.10103 -1.26365,6.51828 1.276879,0.63844 3.252523,-2.78554 3.9243,-3.59172 1.119981,-1.34409 1.761596,-3.32396 2.527565,-4.85564 0.402431,-0.80486 0.960966,-0.56171 1.52982,-1.13083 1.304396,-1.30413 2.176728,-3.68802 2.993232,-5.32103 0.761206,-1.52241 2.365904,-2.31854 3.259137,-3.65839 0.585523,-0.87789 0.121708,-1.84468 0.332581,-2.79348"
       id="path157"
       inkscape:connector-curvature="0"
       style="fill:none;fill-opacity:1;stroke:#000000;stroke-width:1.05833328;stroke-linecap:round;stroke-linejoin:round" />
    <path
       d="m 75.637865,158.8412 c 0.922073,1.99205 1.213909,4.70826 3.259138,5.9862 5.953918,3.72136 26.098237,11.73824 33.124247,10.17693"
       id="path159"
       inkscape:connector-curvature="0"
       style="fill:none;fill-opacity:1;stroke:#000000;stroke-width:1.05833328;stroke-linecap:round;stroke-linejoin:round" />
    <path
       d="m 111.68867,175.66949 c -1.20677,3.47636 12.89552,16.07318 15.49797,15.0323 0.65008,-0.26008 0.89217,-1.63062 0.79798,-2.19498 -0.12674,-0.76094 0.70485,-1.33535 0.33258,-2.32807 -1.02658,-2.73791 -4.76859,-6.76328 -7.25011,-8.31426 -0.52705,-0.32968 -1.23005,-0.0828 -1.52982,-0.33259 -1.17634,-0.98054 -1.86293,-2.30849 -3.12606,-3.19272"
       id="path161"
       inkscape:connector-curvature="0"
       style="fill:none;fill-opacity:1;stroke:#000000;stroke-width:1.05833328;stroke-linecap:round;stroke-linejoin:round" />
    <path
       d="m 120.93427,173.54092 c -0.30322,0.33681 5.2062,5.70203 5.12154,5.7867 -1.0631,1.0631 -8.15102,-4.30318 -9.17893,-4.98845"
       id="path163"
       inkscape:connector-curvature="0"
       style="fill:none;fill-opacity:1;stroke:#000000;stroke-width:1.05833328;stroke-linecap:round;stroke-linejoin:round" />
    <path
       d="m 64.596274,137.68961 c -0.861484,1.63248 2.07936,-0.54292 -0.398992,0.13309"
       id="path165"
       inkscape:connector-curvature="0"
       style="fill:none;fill-opacity:1;stroke:#000000;stroke-width:1.05833328;stroke-linecap:round;stroke-linejoin:round" />
  </g>
</svg>
