<?xml version="1.0" encoding="UTF-8" standalone="no"?>
<!-- Created with Inkscape (http://www.inkscape.org/) -->

<svg
   xmlns:dc="http://purl.org/dc/elements/1.1/"
   xmlns:cc="http://creativecommons.org/ns#"
   xmlns:rdf="http://www.w3.org/1999/02/22-rdf-syntax-ns#"
   xmlns:svg="http://www.w3.org/2000/svg"
   xmlns="http://www.w3.org/2000/svg"
   xmlns:sodipodi="http://sodipodi.sourceforge.net/DTD/sodipodi-0.dtd"
   xmlns:inkscape="http://www.inkscape.org/namespaces/inkscape"
   width="461.98282"
   height="191.20242"
   viewBox="0 0 122.23295 50.588976"
   version="1.1"
   id="svg5129"
   inkscape:version="0.92.1 r15371"
   sodipodi:docname="humpback-whale-swimming-outline-black.svg">
  <defs
     id="defs5123" />
  <sodipodi:namedview
     id="base"
     pagecolor="#ffffff"
     bordercolor="#666666"
     borderopacity="1.0"
     inkscape:pageopacity="0.0"
     inkscape:pageshadow="2"
     inkscape:zoom="3.1278219"
     inkscape:cx="230.99141"
     inkscape:cy="95.601223"
     inkscape:document-units="mm"
     inkscape:current-layer="layer1"
     showgrid="false"
     units="px"
     inkscape:pagecheckerboard="true"
     fit-margin-top="0"
     fit-margin-left="0"
     fit-margin-right="0"
     fit-margin-bottom="0"
     inkscape:window-width="1920"
     inkscape:window-height="1027"
     inkscape:window-x="-8"
     inkscape:window-y="-8"
     inkscape:window-maximized="1" />
  <metadata
     id="metadata5126">
    <rdf:RDF>
      <cc:Work
         rdf:about="">
        <dc:format>image/svg+xml</dc:format>
        <dc:type
           rdf:resource="http://purl.org/dc/dcmitype/StillImage" />
        <dc:title></dc:title>
      </cc:Work>
    </rdf:RDF>
  </metadata>
  <g
     inkscape:label="Layer 1"
     inkscape:groupmode="layer"
     id="layer1"
     transform="translate(0.64028668,-120.51504)">
    <path
       d="m 21.150486,134.78871 c -4.942152,-3.79518 -12.0409232,-5.03582 -17.8681065,-6.97812 -0.8977312,-0.29925 -4.3179999,-1.1557 -3.17182494,-3.06599 2.67176244,-4.45294 12.92595444,0.15345 16.38776244,0.8456 1.236398,0.24739 2.654035,0.0318 3.911864,0.21167 2.931319,0.41857 5.945982,0.32068 8.881269,0.74004 3.312848,0.47334 6.427787,1.91347 9.726877,2.32595 1.852348,0.23151 3.654954,-0.44185 5.498042,-0.2114 6.081977,0.76015 11.848041,3.96584 17.868106,4.96914 2.519362,0.41989 5.928518,-0.66701 8.246797,0.10583 0.929746,0.30983 1.119188,1.50019 1.797315,2.00872 1.974585,1.48114 8.498152,1.82192 10.889985,1.48034 8.455025,-1.20808 11.024129,-3.87535 17.550868,-5.1808"
       id="path20"
       inkscape:connector-curvature="0"
       style="fill:none;fill-opacity:1;stroke:#000000;stroke-width:1.05833328;stroke-linecap:round;stroke-linejoin:round" />
    <path
       d="m 1.2448233,127.57511 c 5.0577749,10.32827 16.4113107,19.35004 27.6238227,21.59264"
       id="path22"
       inkscape:connector-curvature="0"
       style="fill:none;fill-opacity:1;stroke:#000000;stroke-width:1.05833328;stroke-linecap:round;stroke-linejoin:round" />
    <path
       d="m 29.080048,139.86368 c 0.891646,4.05739 -0.92075,7.55465 -0.105833,11.63003 0.440531,2.20212 0.966258,4.49183 1.585912,6.66088 1.72085,6.02245 3.577167,6.76646 7.189523,11.10139 0.246062,0.29527 0.996421,1.62242 1.585912,1.26868 1.3589,-0.81519 -0.690298,-4.93819 -0.845873,-6.02642 -0.409045,-2.86464 -1.797579,-5.60176 -1.374245,-8.56403 0.764116,-5.34908 4.703498,-14.44281 -2.537619,-17.33921"
       id="path24"
       inkscape:connector-curvature="0"
       style="fill:none;fill-opacity:1;stroke:#000000;stroke-width:1.05833328;stroke-linecap:round;stroke-linejoin:round" />
    <path
       d="m 16.672148,144.45341 c -2.491846,3.89467 -5.842794,10.72118 -5.354373,15.60433 0.06985,0.69876 0.244211,3.69385 1.268677,3.48906 1.508125,-0.30163 8.384646,-14.3473 13.021469,-15.27466"
       id="path26"
       inkscape:connector-curvature="0"
       style="fill:none;fill-opacity:1;stroke:#000000;stroke-width:1.05833328;stroke-linecap:round;stroke-linejoin:round" />
    <path
       d="m 38.133031,152.47266 c 13.571537,4.81913 32.640058,2.54477 45.185541,-3.72797 5.814748,-2.90725 11.24294,-9.86817 17.233638,-12.26424"
       id="path28"
       inkscape:connector-curvature="0"
       style="fill:none;fill-opacity:1;stroke:#000000;stroke-width:1.05833328;stroke-linecap:round;stroke-linejoin:round" />
    <path
       d="m 98.014853,136.26879 c 2.623077,-0.0487 5.048517,0.95435 7.506497,1.69174 2.42596,0.72787 15.54215,4.06824 15.54215,-0.84587 0,-0.23336 -3.55044,-0.79587 -4.0177,-0.95144 -1.50733,-0.50244 -3.17103,-0.56356 -4.65217,-1.05728 -1.7145,-0.57176 -3.58351,-2.53206 -5.28637,-3.38349 -0.92181,-0.4609 -2.99455,0.10663 -3.70046,-0.4228 -0.74719,-0.56039 -1.22397,-2.49264 -2.00872,-3.27766 -1.476375,-1.47637 -3.8989,-1.97591 -5.286375,-3.59463 -0.452702,-0.52811 -0.728662,-3.40677 -0.845872,-3.38323 -4.612482,0.92234 -1.89918,9.94992 -0.951707,12.79287"
       id="path30"
       inkscape:connector-curvature="0"
       style="fill:none;fill-opacity:1;stroke:#000000;stroke-width:1.05833328;stroke-linecap:round;stroke-linejoin:round" />
    <path
       d="m 1.2448233,124.13817 c 9.4572667,3.52663 14.6264307,2.41088 22.4430167,10.22747 1.319212,1.31921 1.552575,3.13875 2.854589,4.44077"
       id="path32"
       inkscape:connector-curvature="0"
       style="fill:none;fill-opacity:1;stroke:#000000;stroke-width:1.05833328;stroke-linecap:round;stroke-linejoin:round" />
    <path
       d="m 26.982696,136.05236 c 1.43166,0.2712 -0.226748,-1.43616 -0.07647,-0.53446 0.106627,0.6395 1.121834,0.59664 0.763588,0 -0.05371,-0.0897 -0.175419,0.34634 -0.0762,0.61092"
       id="path34"
       inkscape:connector-curvature="0"
       style="fill:none;fill-opacity:1;stroke:#000000;stroke-width:1.05833328;stroke-linecap:round;stroke-linejoin:round" />
  </g>
</svg>
