<?xml version="1.0" encoding="UTF-8" standalone="no"?>
<!-- Generator: Adobe Illustrator 15.0.2, SVG Export Plug-In . SVG Version: 6.00 Build 0)  -->

<svg
   xmlns:dc="http://purl.org/dc/elements/1.1/"
   xmlns:cc="http://creativecommons.org/ns#"
   xmlns:rdf="http://www.w3.org/1999/02/22-rdf-syntax-ns#"
   xmlns:svg="http://www.w3.org/2000/svg"
   xmlns="http://www.w3.org/2000/svg"
   xmlns:sodipodi="http://sodipodi.sourceforge.net/DTD/sodipodi-0.dtd"
   xmlns:inkscape="http://www.inkscape.org/namespaces/inkscape"
   version="1.1"
   x="0px"
   y="0px"
   width="60"
   height="80"
   viewBox="0 0 60.000001 79.999999"
   enable-background="new 0 0 30 30"
   xml:space="preserve"
   id="svg1025"
   sodipodi:docname="jcu_marker_active_orange.svg"
   inkscape:version="0.92.2 5c3e80d, 2017-08-06"><metadata
     id="metadata1031"><rdf:RDF><cc:Work
         rdf:about=""><dc:format>image/svg+xml</dc:format><dc:type
           rdf:resource="http://purl.org/dc/dcmitype/StillImage" /><dc:title></dc:title></cc:Work></rdf:RDF></metadata><defs
     id="defs1029" /><sodipodi:namedview
     pagecolor="#ffffff"
     bordercolor="#666666"
     borderopacity="1"
     objecttolerance="10"
     gridtolerance="10"
     guidetolerance="10"
     inkscape:pageopacity="0"
     inkscape:pageshadow="2"
     inkscape:window-width="1848"
     inkscape:window-height="1114"
     id="namedview1027"
     showgrid="false"
     inkscape:zoom="11.7125"
     inkscape:cx="14.418356"
     inkscape:cy="43.498228"
     inkscape:window-x="78"
     inkscape:window-y="9"
     inkscape:window-maximized="0"
     inkscape:current-layer="layer1"
     inkscape:pagecheckerboard="true"
     showguides="false"
     fit-margin-top="0"
     fit-margin-left="0"
     fit-margin-right="0"
     fit-margin-bottom="0" /><g
     id="Layer_1"
     display="none"
     style="display:none"
     transform="translate(-0.42744153,51.52501)"><path
       display="inline"
       stroke-miterlimit="10"
       d="m 19.754,2.915 c -0.353,2.153 -1.939,4.066 -4.76,4.066 -2.825,0 -4.412,-1.919 -4.762,-4.076 -4.829,1.899 -8.257,6.58 -8.257,12.083 0,7.183 5.823,13.007 13.006,13.007 7.184,0 13.007,-5.824 13.007,-13.007 C 27.987,9.494 24.57,4.821 19.754,2.915 Z"
       id="path1010"
       inkscape:connector-curvature="0"
       style="display:inline;fill:none;stroke:#999999;stroke-width:3;stroke-miterlimit:10" /></g><g
     id="Layer_1_copy"
     display="none"
     style="display:none"
     transform="translate(-0.42744153,51.52501)"><path
       display="inline"
       stroke-miterlimit="10"
       d="m 19.754,2.915 c -0.353,2.153 -1.939,4.066 -4.76,4.066 -2.825,0 -4.412,-1.919 -4.762,-4.076 -4.829,1.899 -8.257,6.58 -8.257,12.083 0,7.183 5.823,13.007 13.006,13.007 7.184,0 13.007,-5.824 13.007,-13.007 C 27.987,9.494 24.57,4.821 19.754,2.915 Z"
       id="path1013"
       inkscape:connector-curvature="0"
       style="display:inline;fill:none;stroke:#000000;stroke-width:2;stroke-miterlimit:10" /></g><g
     id="Layer_5"
     display="none"
     style="display:none"
     transform="translate(-0.42744153,51.52501)"><circle
       display="inline"
       cx="15"
       cy="2.007"
       r="2.053"
       id="circle1022"
       style="display:inline;fill:#ee1d3a" /></g><g
     inkscape:groupmode="layer"
     id="layer2"
     inkscape:label="border"
     style="display:inline"
     transform="translate(-0.42744153,51.52501)"><g
       id="Layer_3_copy"
       style="display:inline;fill:none;fill-opacity:0;stroke:#ffffff;stroke-width:4.15714264;stroke-miterlimit:4;stroke-dasharray:none;stroke-opacity:1"
       transform="matrix(1.33,0,0,1.33,10.845091,-5.3342048)"><path
         style="fill:none;fill-opacity:0;stroke:#ffffff;stroke-width:4.15714264;stroke-miterlimit:4;stroke-dasharray:none;stroke-opacity:1"
         d="M 23.053,15 A 8.0530005,8.0530005 0 0 1 15,23.053 8.0530005,8.0530005 0 0 1 6.9469995,15 8.0530005,8.0530005 0 0 1 15,6.9469995 8.0530005,8.0530005 0 0 1 23.053,15 Z"
         id="circle1019"
         inkscape:connector-curvature="0" /></g></g><g
     inkscape:groupmode="layer"
     id="layer1"
     inkscape:label="fill"
     style="display:inline"
     transform="translate(-0.42744153,51.52501)"><g
       id="Layer_3"
       style="display:inline;fill:none;fill-opacity:0;stroke:#ff8800;stroke-width:2.26771665;stroke-miterlimit:4;stroke-dasharray:none;stroke-opacity:1"
       transform="matrix(1.33,0,0,1.33,10.84509,-5.3342049)"><circle
         stroke-miterlimit="10"
         cx="15"
         cy="15"
         r="8.0530005"
         id="circle1016"
         style="fill:none;fill-opacity:0;stroke:#ff8800;stroke-width:2.26771665;stroke-miterlimit:4;stroke-dasharray:none;stroke-opacity:1" /></g><path
       style="fill:#ff8800;fill-opacity:1;stroke:#ffffff;stroke-width:2.98608708px;stroke-linecap:butt;stroke-linejoin:miter;stroke-opacity:1"
       d="M 4.9895321,-49.220904 56.400415,-49.531487 30.894659,-5.515312 Z"
       id="path1132"
       inkscape:connector-curvature="0" /></g></svg>