<?xml version="1.0" encoding="UTF-8" standalone="no"?>
<!-- Generator: Adobe Illustrator 16.0.0, SVG Export Plug-In . SVG Version: 6.00 Build 0)  -->

<svg
   xmlns:dc="http://purl.org/dc/elements/1.1/"
   xmlns:cc="http://creativecommons.org/ns#"
   xmlns:rdf="http://www.w3.org/1999/02/22-rdf-syntax-ns#"
   xmlns:svg="http://www.w3.org/2000/svg"
   xmlns="http://www.w3.org/2000/svg"
   xmlns:sodipodi="http://sodipodi.sourceforge.net/DTD/sodipodi-0.dtd"
   xmlns:inkscape="http://www.inkscape.org/namespaces/inkscape"
   version="1.1"
   id="Capa_1"
   x="0px"
   y="0px"
   width="485.211"
   height="424.55899"
   viewBox="0 0 485.211 424.559"
   xml:space="preserve"
   sodipodi:docname="map-perspective-with-a-placeholder-on-it._Post_Group_Scalesvg.svg"
   inkscape:version="0.92.2 5c3e80d, 2017-08-06"><metadata
     id="metadata4027"><rdf:RDF><cc:Work
         rdf:about=""><dc:format>image/svg+xml</dc:format><dc:type
           rdf:resource="http://purl.org/dc/dcmitype/StillImage" /><dc:title></dc:title></cc:Work></rdf:RDF></metadata><defs
     id="defs4025" /><sodipodi:namedview
     pagecolor="#ffffff"
     bordercolor="#666666"
     borderopacity="1"
     objecttolerance="10"
     gridtolerance="10"
     guidetolerance="10"
     inkscape:pageopacity="0"
     inkscape:pageshadow="2"
     inkscape:window-width="2312"
     inkscape:window-height="1317"
     id="namedview4023"
     showgrid="false"
     inkscape:zoom="1"
     inkscape:cx="-17.312039"
     inkscape:cy="376.56224"
     inkscape:window-x="134"
     inkscape:window-y="8"
     inkscape:window-maximized="0"
     inkscape:current-layer="Capa_1"
     fit-margin-top="0"
     fit-margin-left="0"
     fit-margin-right="0"
     fit-margin-bottom="0" /><g
     id="g3992"
     transform="translate(0,-30.326)" /><g
     id="g3994"
     transform="translate(0,-30.326)" /><g
     id="g3996"
     transform="translate(0,-30.326)" /><g
     id="g3998"
     transform="translate(0,-30.326)" /><g
     id="g4000"
     transform="translate(0,-30.326)" /><g
     id="g4002"
     transform="translate(0,-30.326)" /><g
     id="g4004"
     transform="translate(0,-30.326)" /><g
     id="g4006"
     transform="translate(0,-30.326)" /><g
     id="g4008"
     transform="translate(0,-30.326)" /><g
     id="g4010"
     transform="translate(0,-30.326)" /><g
     id="g4012"
     transform="translate(0,-30.326)" /><g
     id="g4014"
     transform="translate(0,-30.326)" /><g
     id="g4016"
     transform="translate(0,-30.326)" /><g
     id="g4018"
     transform="translate(0,-30.326)" /><g
     id="g4020"
     transform="translate(0,-30.326)" /><g
     id="g5132"
     transform="matrix(0.5,0,0,0.5,121.30275,106.13975)"><g
       transform="translate(0,-30.326)"
       id="g3990"><path
         sodipodi:nodetypes="cccccccccccccccccccccccccccscccssssssssccccccccccccccccccccc"
         inkscape:connector-curvature="0"
         id="path3988"
         d="m 198.008,313.767 11.252,28.138 c -10.897,4.354 -21.765,7.672 -32.368,9.89 l -6.191,-29.669 c 8.886,-1.873 18.066,-4.682 27.307,-8.359 z m -90.238,36.342 c 11.105,3.197 22.806,4.915 34.768,5.092 l 0.476,-30.322 c -9.301,-0.153 -18.333,-1.451 -26.861,-3.906 z m 238.782,-52.925 c 8.741,1.723 17.268,4.714 25.352,8.887 l 13.927,-26.948 c -10.665,-5.479 -21.889,-9.418 -33.412,-11.672 z m -63.258,-24.875 9.068,28.903 c 9.264,-2.903 18.421,-4.737 27.241,-5.447 l -2.422,-30.209 c -11.079,0.891 -22.481,3.173 -33.887,6.753 z m -48.683,22.804 c -3.404,2.133 -6.753,4.083 -10.041,5.922 l 14.75,26.481 c 3.701,-2.082 7.491,-4.266 11.28,-6.637 5.214,-3.229 10.31,-6.104 15.313,-8.653 L 252.14,285.222 c -5.683,2.903 -11.55,6.19 -17.529,9.891 z M 318.423,106.14 c 0,12.379 -2.968,24.107 -8.237,34.415 l -67.579,132.374 c 0,0 -68.114,-133.474 -68.38,-134.033 -4.77,-9.892 -7.432,-21.028 -7.432,-32.756 0,-41.875 33.937,-75.814 75.812,-75.814 41.872,0 75.816,33.939 75.816,75.814 z m -30.326,0 c 0,-25.114 -20.377,-45.49 -45.49,-45.49 -25.114,0 -45.49,20.376 -45.49,45.49 0,25.111 20.376,45.487 45.49,45.487 25.113,0 45.49,-20.376 45.49,-45.487 z m 106.138,75.814 -107.131,1 -13.495,30.327 98.77,-1 32.726,98.205 -10.454,11.551 c 11.136,10.062 16.909,19.336 16.941,19.368 l 3.197,-1.923 28.343,85.076 H 42.053 L 72.44,333.495 c 1.066,0.741 1.893,1.451 3.078,2.188 l 16.113,-25.646 c -3.614,-2.282 -6.576,-4.532 -9.183,-6.632 l 30.388,-91.125 96.795,-1 c -6.427,-12.559 -7.491,-23.477 -11.488,-31.327 l -107.165,2 L 0,454.885 h 485.211 z" /></g><path
       inkscape:connector-curvature="0"
       id="path4181"
       d="m 233.58796,119.8988 c -11.73534,-2.29184 -25.12581,-12.2966 -30.40718,-22.71888 -11.14693,-21.99739 -4.82296,-45.966248 15.62832,-59.233893 15.44456,-10.019569 37.08046,-8.975888 51.12253,2.466069 10.35651,8.438834 16.2068,18.964884 17.35107,31.218674 2.76977,29.66076 -24.31274,54.00615 -53.69474,48.26803 z"
       style="fill:#f9f9f9" /><path
       inkscape:connector-curvature="0"
       id="path5049"
       d="m 241.33834,238.88428 c -5.44924,-8.81479 -68.99457,-135.76262 -70.77331,-141.38753 -2.75689,-8.718099 -3.72113,-25.39943 -2.03065,-35.130207 4.56598,-26.282828 24.54769,-49.25418 50.31195,-57.839569 19.80901,-6.600926 43.90728,-4.182604 61.72436,6.194192 8.69681,5.065089 21.70476,18.058448 26.80564,26.775587 6.58523,11.253788 9.43909,21.066868 9.99638,34.372738 0.85295,20.365319 0.27211,22.039149 -24.85556,71.627259 -52.33705,103.28436 -49.53061,98.0537 -51.17881,95.38753 z m 9.36313,-117.88632 c 13.56388,-2.51508 27.49182,-13.13249 33.28146,-25.37078 12.30151,-26.00325 -2.10182,-56.849216 -29.92993,-64.097518 -26.16701,-6.81564 -52.11668,10.231398 -56.65332,37.217091 -5.13829,30.564507 22.76129,57.914177 53.30179,52.251207 z"
       style="fill:#ff0000" /><path
       inkscape:connector-curvature="0"
       id="path5051"
       d="m 57.76688,348.95589 c 12.29773,-36.88319 15.26376,-44.83664 16.37633,-43.91328 1.08051,0.89673 2.11512,-0.0673 5.05379,-4.70914 2.03233,-3.2102 5.6517,-8.88825 8.04305,-12.6179 2.39135,-3.72965 4.34791,-7.18797 4.34791,-7.68515 0,-0.49718 -1.79039,-2.17064 -3.97865,-3.71881 -2.18825,-1.54817 -3.98825,-3.26867 -4,-3.82332 -0.0117,-0.55466 6.65389,-21.02966 14.812521,-45.5 l 14.833869,-44.49154 47.41613,-0.5 c 26.07887,-0.275 47.88311,-0.80502 48.45387,-1.17783 0.62302,-0.40695 7.41683,11.87238 17,30.72631 8.77924,17.27228 16.18726,31.40496 16.46226,31.40596 0.275,9.9e-4 7.25,-13.2923 15.5,-29.54065 8.25,-16.24836 15.24603,-29.70854 15.54673,-29.91152 0.30071,-0.20298 22.55372,-0.46326 49.45115,-0.5784 l 48.90441,-0.20936 16.29293,48.8673 16.29294,48.86729 -4.99408,5.0569 c -2.74674,2.78129 -4.99408,5.50811 -4.99408,6.05961 0,0.55149 2.49126,3.46234 5.53613,6.46855 3.04487,3.00621 6.72747,7.18422 8.18356,9.28447 1.80935,2.60979 3.20685,3.67234 4.41461,3.3565 1.51947,-0.39735 3.72518,5.41006 15.73601,41.43137 l 13.96883,41.8935 H 242.58815 42.7492 Z m 85.18516,-28.59871 c 0.34975,-2.55177 0.63592,-9.52677 0.63592,-15.5 v -10.86043 h -3.86901 c -3.89419,0 -19.62039,-2.4831 -22.34301,-3.52786 -1.1408,-0.43777 -2.3918,2.67315 -5.68112,14.12757 -2.32,8.07893 -3.85564,15.04231 -3.41252,15.47418 0.44311,0.43187 4.40566,1.4775 8.80566,2.32364 11.44022,2.19998 12.33364,2.31526 19.11408,2.46629 l 6.11407,0.13618 z m 47.63592,-2.01667 c 9.99728,-2.90178 17.1783,-5.39864 18.30602,-6.36506 0.44331,-0.3799 -1.75124,-7.08178 -4.87676,-14.89306 -4.62007,-11.54642 -5.98634,-14.08141 -7.30602,-13.55571 -4.5274,1.8035 -19.34403,6.42086 -22.5094,7.01469 -2.11635,0.39703 -3.61384,1.26045 -3.61384,2.08365 0,1.1685 3.62991,19.01792 5.51829,27.13515 0.60255,2.59009 0.70019,2.58052 14.48171,-1.41966 z m 58,-26.02324 c 4.675,-2.74662 10.65768,-6.22315 13.29484,-7.72562 l 4.79484,-2.73176 -6.60979,-12.68157 c -3.63538,-6.97486 -7.02599,-13.1045 -7.53469,-13.62141 -0.99521,-1.0113 -3.39933,0.17464 -18.73968,9.24423 -5.11197,3.02231 -9.16197,6.00224 -9,6.62204 0.56992,2.18096 14.25548,26.40745 14.77176,26.14931 0.2875,-0.14374 4.34772,-2.50859 9.02272,-5.25522 z m 130.96017,-30.241 6.97352,-13.92049 -7.71685,-3.24167 c -8.1516,-3.42431 -22.48712,-7.91736 -25.26112,-7.91736 -1.32724,0 -2.1854,2.8309 -4.42016,14.58121 -1.54609,8.12934 -2.38873,14.92759 -1.90436,15.36404 0.47784,0.43056 2.8938,1.27396 5.3688,1.87424 2.475,0.60027 7.65,2.42589 11.5,4.05694 3.85,1.63105 7.3345,3.0011 7.74332,3.04456 0.40883,0.0435 3.88141,-6.1852 7.71685,-13.84147 z m -78.34755,7.00401 c 4.33806,-1.05406 10.31287,-2.22995 13.27735,-2.61309 l 5.38997,-0.69661 -0.66335,-10.63692 c -0.36485,-5.8503 -0.94185,-12.81997 -1.28224,-15.48817 l -0.61888,-4.85126 -6.59976,0.70677 c -8.77785,0.94003 -27.65218,5.75033 -27.47574,7.00245 0.43416,3.08094 8.80902,28.4933 9.39022,28.4933 0.38228,0 4.24437,-0.86241 8.58243,-1.91647 z"
       style="fill:#b3b3b3" /><path
       inkscape:connector-curvature="0"
       id="path5053"
       d="m 231.85251,119.45516 c -24.50343,-6.59907 -38.98567,-30.9126 -32.72655,-54.943006 2.10161,-8.068594 6.39964,-15.220549 12.76445,-21.240121 8.68664,-8.215465 18.86983,-12.27528 30.78996,-12.27528 12.50335,0 23.75544,4.916472 32.56117,14.227232 9.08463,9.605651 12.98099,20.60898 12.06207,34.063285 -1.85573,27.17057 -29.46095,47.16735 -55.4511,40.16789 z"
       style="fill:#ffffff" /><path
       inkscape:connector-curvature="0"
       id="path5055"
       d="m 43.58796,393.12096 c 0,-1.57274 26.80386,-80.50089 28.90803,-85.12421 1.12643,-2.475 2.07622,-3.825 2.11065,-3 0.039,0.93408 1.16346,0.21252 2.98051,-1.91257 1.60484,-1.87691 2.685,-3.78941 2.40034,-4.25 -0.28466,-0.46059 -0.13803,-0.83743 0.32585,-0.83743 1.00201,0 4.83445,-6.16907 4.50394,-7.25 -0.12613,-0.4125 0.20912,-0.75 0.745,-0.75 1.0546,0 4.56833,-6.02052 4.23128,-7.25 -0.11308,-0.4125 0.2444,-0.75 0.7944,-0.75 2.16139,0 0.82269,-3.05621 -2.49997,-5.70736 -1.9439,-1.55104 -3.48698,-3.68183 -3.47076,-4.79264 0.0161,-1.1 6.45247,-21.35 14.303118,-45 l 14.273902,-43 23.44685,-0.75082 c 12.89578,-0.41295 34.55674,-0.86295 48.13547,-1 l 24.68862,-0.24918 3.43986,6 c 1.89193,3.3 6.05399,10.95 9.24903,17 3.19504,6.05 6.17753,11.15094 6.62775,11.33541 0.45023,0.18448 0.56423,0.74698 0.25334,1.25 -0.31088,0.50303 -0.0621,0.91459 0.55279,0.91459 0.61492,0 0.83992,0.45 0.5,1 -0.33992,0.55 -0.0665,1 0.60765,1 0.67413,0 0.92984,0.29585 0.56825,0.65744 -0.67086,0.67086 10.2855,22.34256 11.29552,22.34256 1.01012,0 10.02007,-17.67517 9.35101,-18.34424 -0.36067,-0.36066 -0.10421,-0.65576 0.56992,-0.65576 0.67413,0 0.94757,-0.45 0.60765,-1 -0.33992,-0.55 -0.11492,-1 0.5,-1 0.61492,0 0.83992,-0.45 0.5,-1 -0.33992,-0.55 -0.11492,-1 0.5,-1 0.61492,0 0.86367,-0.41156 0.55279,-0.91459 -0.31089,-0.50302 -0.17949,-1.06552 0.29199,-1.25 0.47148,-0.18447 4.75758,-7.81802 9.52465,-16.96344 l 8.6674,-16.62804 24.73159,-0.80367 c 29.1748,-0.94806 72.33463,-0.76796 73.30529,0.30589 0.37477,0.41462 7.81247,22.21738 16.52821,48.45058 l 15.84681,47.69672 -2.39868,2.55328 c -1.31927,1.4043 -2.06071,2.55327 -1.64764,2.55327 0.41307,0 -0.63349,1.165 -2.32568,2.58889 -1.6922,1.4239 -3.07673,3.13676 -3.07673,3.80636 0,0.66961 3.05598,4.47362 6.79108,8.45337 3.73509,3.97974 6.59914,7.42783 6.36455,7.66241 -0.23458,0.23459 0.97576,1.22807 2.68964,2.20775 1.97557,1.12925 3.86423,3.517 5.1599,6.52346 2.18989,5.08134 25.99483,75.52252 25.99483,76.92127 0,0.46007 -89.55,0.83649 -199,0.83649 -113.18463,0 -199,-0.37767 -199,-0.87579 z m 99.43022,-70.88345 c 0.3218,-1.50742 0.49305,-8.44822 0.38056,-15.424 l -0.20451,-12.68324 -4.55314,-0.60186 c -2.50422,-0.33103 -6.57813,-0.76528 -9.05313,-0.96502 -2.475,-0.19973 -5.175,-0.59635 -6,-0.88137 -5.9472,-2.05466 -6.91448,-1.82571 -8.5199,2.01659 -0.85723,2.05164 -1.69715,4.42053 -1.8665,5.26419 -0.16934,0.84367 -0.83927,2.83386 -1.48873,4.42264 -0.64945,1.58878 -0.94714,3.12237 -0.66152,3.40799 0.28561,0.28562 0.11605,1.01071 -0.3768,1.61131 -0.81482,0.99297 -1.72635,4.90045 -2.34861,10.06789 -0.13087,1.08673 0.21206,2.02559 0.76206,2.08636 0.55,0.0608 1.675,0.39735 2.5,0.74795 2.63626,1.12033 11.10351,2.74387 11.8628,2.27461 0.40298,-0.24906 1.34554,-0.0741 2.09457,0.38885 0.74903,0.46293 4.8552,0.87908 9.12483,0.92478 7.67966,0.0822 7.76922,0.0537 8.34802,-2.65767 z m 38.07986,-1.25707 c 0.34546,-0.55897 1.04702,-0.75742 1.55902,-0.44098 0.51199,0.31643 1.4934,0.22428 2.1809,-0.20476 0.6875,-0.42905 2.15,-0.91085 3.25,-1.07066 1.1,-0.15981 2.675,-0.58396 3.5,-0.94256 0.825,-0.3586 1.8375,-0.74711 2.25,-0.86336 0.4125,-0.11626 0.8625,-0.30205 1,-0.41288 0.1375,-0.11083 1.07264,-0.35742 2.07809,-0.54798 1.00545,-0.19056 2.58045,-0.67976 3.5,-1.08712 0.91955,-0.40736 1.89691,-0.79672 2.17191,-0.86524 5.65772,-1.40975 6,-1.66078 6,-4.40054 0,-1.54785 -0.31302,-3.1273 -0.69561,-3.50989 -0.38259,-0.38258 -0.79742,-1.38927 -0.92185,-2.23709 -0.37725,-2.57031 -5.42074,-14.68472 -7.57095,-18.18533 -1.60379,-2.61101 -2.45794,-3.14792 -4.16459,-2.61781 -1.18085,0.36678 -2.28857,1.03212 -2.46161,1.47852 -0.17303,0.4464 -0.96053,0.56377 -1.75,0.26082 -0.78946,-0.30294 -1.43539,-0.0668 -1.43539,0.5248 0,0.59158 -0.675,0.81658 -1.5,0.5 -0.825,-0.31659 -1.5,-0.12746 -1.5,0.42027 0,0.54773 -0.5625,0.93755 -1.25,0.86627 -1.84487,-0.19129 -12.07345,2.47461 -13.34771,3.47884 -1.36618,1.07668 -1.60448,6.63 -0.3186,7.42471 0.52191,0.32256 0.71862,0.95914 0.43712,1.41461 -0.48397,0.78309 1.9786,13.815 3.21875,17.03367 0.31788,0.825 0.48276,1.90876 0.36641,2.40836 -0.47534,2.04107 4.26267,3.42222 5.40411,1.57533 z m 64.48992,-27.25831 c 0,-0.46388 0.38185,-0.60742 0.84856,-0.31898 0.4667,0.28844 1.72177,-0.2475 2.78904,-1.19098 1.06727,-0.94348 2.59792,-1.85265 3.40145,-2.02038 0.80352,-0.16772 1.98247,-0.98519 2.61988,-1.81659 0.63742,-0.83139 1.45081,-1.43286 1.80753,-1.3366 1.12838,0.30451 9.53354,-4.49718 9.53354,-5.44631 0,-1.33607 -12.10974,-23.84814 -13.66512,-25.40351 -1.42303,-1.42304 -5.33488,-0.73789 -5.33488,0.93438 0,0.54539 -0.45,0.71351 -1,0.37359 -0.55,-0.33992 -1,-0.14147 -1,0.44099 0,0.58246 -0.3375,0.98048 -0.75,0.8845 -1.24366,-0.28938 -6.25,2.4293 -6.25,3.39405 0,0.49417 -0.38185,0.6625 -0.84856,0.37406 -0.4667,-0.28844 -1.91864,0.4725 -3.22653,1.69098 -1.30788,1.21848 -2.61353,2.12437 -2.90144,2.01309 -0.28791,-0.11128 -1.42347,0.47041 -2.52347,1.29264 -1.1,0.82223 -2.65337,1.896 -3.45193,2.38615 -1.23301,0.75681 -1.09487,1.65353 0.91615,5.94714 1.30244,2.78078 3.21084,5.96056 4.24089,7.06618 1.03004,1.10562 1.59357,2.01022 1.25229,2.01022 -0.80026,0 3.60322,7.26705 4.98981,8.23469 0.57904,0.40408 0.64555,0.74158 0.1478,0.75 -0.49774,0.008 -0.0998,0.90504 0.88434,1.99249 1.70811,1.88745 1.91938,1.90035 4.65499,0.28439 1.57611,-0.93103 2.86566,-2.07232 2.86566,-2.53619 z m 126.62149,-18.49069 c 1.74008,-1.13993 10.46323,-17.81663 9.71224,-18.56762 -0.36688,-0.36689 -0.11551,-0.66707 0.55862,-0.66707 0.67413,0 0.94757,-0.45 0.60765,-1 -0.33992,-0.55 -0.0665,-1 0.60765,-1 0.67413,0 0.94711,-0.27857 0.60664,-0.61904 -0.34048,-0.34048 0.0345,-1.27262 0.83333,-2.07143 0.79881,-0.79881 1.45238,-1.85868 1.45238,-2.35527 0,-1.06134 -4.64991,-3.60354 -7.50819,-4.10489 -1.09549,-0.19215 -2.23634,-0.6755 -2.53522,-1.07411 -0.29887,-0.39861 -1.42387,-0.89233 -2.5,-1.09715 -1.07612,-0.20482 -3.25544,-0.90337 -4.84291,-1.55233 -1.58748,-0.64897 -3.61248,-1.29327 -4.5,-1.43179 -0.88753,-0.13851 -2.1115,-0.56291 -2.71994,-0.9431 -0.60844,-0.38019 -2.98307,-0.92706 -5.27695,-1.21527 -3.65654,-0.45943 -4.27667,-0.24529 -5.03034,1.737 -1.03814,2.73052 -3.7186,16.43473 -4.47551,22.88171 l -0.54645,4.65432 4.03367,1.61395 c 2.21852,0.88768 4.45401,1.35418 4.96776,1.03666 0.51374,-0.31751 0.93408,-0.0526 0.93408,0.58872 0,0.6413 0.64593,0.91814 1.43539,0.61519 0.78947,-0.30295 1.57697,-0.21774 1.75,0.18935 0.26668,0.6274 9.31727,4.8547 10.81461,5.05123 0.275,0.0361 1.00467,-0.26498 1.62149,-0.66906 z m -75.11141,-5.251 c 0.34546,-0.55897 1.04702,-0.75741 1.55902,-0.44098 0.51199,0.31643 1.44804,0.25572 2.0801,-0.13492 0.63206,-0.39063 2.95537,-0.87293 5.16292,-1.07178 2.20754,-0.19884 4.5443,-0.80189 5.19281,-1.34009 0.6485,-0.53821 1.4542,-0.70345 1.79045,-0.3672 0.33625,0.33625 2.22335,0.30895 4.19355,-0.0607 3.39147,-0.63625 3.55118,-0.84229 2.99977,-3.87004 -0.49607,-2.72388 -1.26139,-12.14831 -1.55899,-19.19802 -0.0464,-1.1 -0.29849,-3.48107 -0.56012,-5.29127 l -0.4757,-3.29127 -6.89703,0.47937 c -3.79336,0.26366 -7.76032,0.9414 -8.81546,1.50609 -1.05514,0.56469 -2.14262,0.80253 -2.41664,0.52851 -0.27401,-0.27401 -2.47067,0.14246 -4.88148,0.92549 -2.4108,0.78303 -5.50828,1.69407 -6.88328,2.02454 -4.56893,1.09812 -5.21121,1.96081 -3.87255,5.20151 0.66273,1.60437 1.29892,3.25453 1.41376,3.66703 0.11483,0.4125 0.31833,1.0875 0.45221,1.5 0.13388,0.4125 0.19983,1.05841 0.14655,1.43535 -0.0943,0.66723 2.24265,7.80594 3.54033,10.81465 0.35583,0.825 0.72354,1.725 0.81713,2 1.43393,4.21347 2.74965,6 4.4188,6 1.08116,0 2.24839,-0.45734 2.59385,-1.01631 z"
       style="fill:#ffffff" /><path
       inkscape:connector-curvature="0"
       id="path5057"
       d="m 231.85251,119.45516 c -24.53002,-6.60623 -38.98529,-30.9093 -32.71255,-54.998308 1.91025,-7.335882 5.40671,-13.432563 11.34369,-19.779666 17.0602,-18.238738 47.14842,-18.238738 64.20862,0 8.55823,9.149437 12.9086,19.711389 12.88382,31.279664 -0.0612,28.57876 -28.54918,50.81671 -55.72358,43.49831 z"
       style="fill:#ffffff" /></g></svg>