<?xml version="1.0" encoding="UTF-8" standalone="no"?>
<!-- Created with Inkscape (http://www.inkscape.org/) -->

<svg
   xmlns:dc="http://purl.org/dc/elements/1.1/"
   xmlns:cc="http://creativecommons.org/ns#"
   xmlns:rdf="http://www.w3.org/1999/02/22-rdf-syntax-ns#"
   xmlns:svg="http://www.w3.org/2000/svg"
   xmlns="http://www.w3.org/2000/svg"
   xmlns:sodipodi="http://sodipodi.sourceforge.net/DTD/sodipodi-0.dtd"
   xmlns:inkscape="http://www.inkscape.org/namespaces/inkscape"
   width="64.467102mm"
   height="209.673mm"
   viewBox="0 0 64.467102 209.673"
   version="1.1"
   id="svg4595"
   inkscape:version="0.92.1 r15371"
   sodipodi:docname="snorkler-4-silhouette-blue.svg">
  <defs
     id="defs4589" />
  <sodipodi:namedview
     id="base"
     pagecolor="#ffffff"
     bordercolor="#666666"
     borderopacity="1.0"
     inkscape:pageopacity="0.0"
     inkscape:pageshadow="2"
     inkscape:zoom="0.35"
     inkscape:cx="-708.1724"
     inkscape:cy="490.51818"
     inkscape:document-units="mm"
     inkscape:current-layer="layer1"
     showgrid="false"
     fit-margin-top="0"
     fit-margin-left="0"
     fit-margin-right="0"
     fit-margin-bottom="0"
     inkscape:pagecheckerboard="true"
     inkscape:window-width="1920"
     inkscape:window-height="1013"
     inkscape:window-x="-9"
     inkscape:window-y="-9"
     inkscape:window-maximized="1" />
  <metadata
     id="metadata4592">
    <rdf:RDF>
      <cc:Work
         rdf:about="">
        <dc:format>image/svg+xml</dc:format>
        <dc:type
           rdf:resource="http://purl.org/dc/dcmitype/StillImage" />
        <dc:title></dc:title>
      </cc:Work>
    </rdf:RDF>
  </metadata>
  <g
     inkscape:label="Layer 1"
     inkscape:groupmode="layer"
     id="layer1"
     transform="translate(-62.260496,-68.943257)">
    <g
       transform="matrix(0.26458333,0,0,0.26458333,26.234856,51.577048)"
       id="g60">
      <path
         style="fill:#1a72b1"
         inkscape:connector-curvature="0"
         id="path40"
         d="m 205.866,809.525 v 0" />
      <g
         id="g46">
        <path
           style="fill:#1a72b1"
           inkscape:connector-curvature="0"
           id="path42"
           d="m 195.502,451.468 c -2.457,46.984 -3.403,94.299 -4.853,141.418 -0.335,10.856 1.349,22.717 -0.531,33.5 -3.662,20.993 -4.529,48.684 -2.154,69.966 1.694,15.184 3.817,41.904 24.272,40.266 2.352,-0.188 6.146,-1.219 7.604,-3.267 2.082,-2.923 5.772,-41.226 5.944,-46.839 1.343,-43.62 4.161,-107.565 10.098,-149.26 2.906,-20.41 9.953,-59.569 4.945,-79.386 -3.896,-15.418 -33.03,-24.806 -43.641,-12.349 -1.665,1.955 -0.746,7.99 -0.823,10.48 z" />
        <path
           style="fill:#1a72b1"
           inkscape:connector-curvature="0"
           id="path44"
           d="m 216.325,708.581 c -29.961,-6.915 -24.868,22.564 -30.778,41.073 -4.745,14.857 -9.949,29.789 -15.378,44.548 -3.493,9.494 -18.516,44.757 -13.626,52.605 2.275,3.651 7.163,5.223 11.341,5.352 9.582,0.295 21.545,-4.468 31.185,-5.543 9.045,-1.009 18.514,5.072 28.348,5.375 3.686,0.113 6.687,-3.118 8.197,-6.251 10.845,-22.509 -7.276,-74.999 -14.008,-97.477 -3.399,-11.35 10.975,-37.042 -4.766,-40.166 z" />
      </g>
      <g
         id="g54">
        <path
           style="fill:#1a72b1"
           inkscape:connector-curvature="0"
           id="path48"
           d="m 275.644,453.246 c 2.4,46.987 6.336,94.147 9.751,141.165 0.786,10.832 3.684,22.457 2.925,33.375 -1.478,21.26 0.514,48.893 5.07,69.817 3.251,14.928 8.117,41.286 28.294,37.549 2.32,-0.43 5.988,-1.847 7.227,-4.034 1.769,-3.122 1.491,-41.601 1.084,-47.203 -3.161,-43.525 -6.95,-107.42 -5.343,-149.505 0.786,-20.6 3.759,-60.278 -3.265,-79.473 -5.465,-14.934 -35.412,-21.269 -44.682,-7.784 -1.454,2.116 0.082,8.024 0.262,10.509" />
        <path
           style="fill:#1a72b1"
           inkscape:connector-curvature="0"
           id="path50"
           d="m 330.173,713.981 v 0" />
        <path
           style="fill:#1a72b1"
           inkscape:connector-curvature="0"
           id="path52"
           d="m 326.393,710.245 c -30.514,-3.789 -22.41,25.007 -26.381,44.027 -3.187,15.267 -6.824,30.655 -10.703,45.896 -2.496,9.804 -13.803,46.427 -8.13,53.73 2.64,3.397 7.664,4.456 11.832,4.154 9.561,-0.695 20.97,-6.665 30.448,-8.729 8.892,-1.936 18.938,3.137 28.751,2.424 3.677,-0.267 6.33,-3.79 7.508,-7.062 8.467,-23.507 -14.968,-73.85 -23.981,-95.514 -4.551,-10.939 7.097,-37.976 -8.882,-39.461" />
      </g>
      <path
         style="fill:#1a72b1"
         inkscape:connector-curvature="0"
         id="path56"
         d="m 243.098,204.693 c -22.046,8.819 -42.949,-7.509 -58.759,37.155 -4.468,12.62 -13.564,31.51 -17.391,44.268 -4.238,14.127 -13.347,29.392 -15.415,43.874 -3.78,26.456 -9.02,52.761 -13.044,79.051 -0.908,4.518 -1.78,9.046 -2.141,13.648 -0.285,3.629 -0.607,9.163 1.991,12.092 3.972,3.972 14.513,-17.749 16.996,-18.577 0.754,-0.251 0.901,12.706 2.767,11.462 7.225,-4.816 1.509,-32.37 2.767,-39.92 8.061,-48.369 23.394,-98.568 46.245,-141.897 -4.301,15.054 -1.248,24.57 -1.248,40.711 0,8.301 5.2,28.443 3.224,41.502 -3.842,25.388 -6.832,56.466 -14.624,79.842 -3.22,9.658 -5.683,42.978 1.432,46.535 18.344,20.314 54.477,-6.57 59.042,-5.429 21.402,5.351 46.906,25.755 62.45,6.324 9.486,0 7.339,-38.562 4.119,-48.221 -7.792,-23.376 -11.545,-47.113 -16.372,-72.332 -3.328,-17.391 4.397,-34.934 5.139,-47.43 0.935,-15.776 2.796,-27.555 -1.415,-42.293 22.851,43.33 38.184,93.529 46.245,141.897 1.258,7.55 -4.458,35.105 2.767,39.921 1.866,1.244 2.013,-11.714 2.767,-11.463 2.483,0.828 13.023,22.55 16.996,18.577 2.598,-2.928 2.276,-8.462 1.991,-12.092 -0.361,-4.601 -1.233,-9.129 -2.141,-13.648 -4.025,-26.29 -9.264,-52.594 -13.044,-79.051 -2.068,-14.481 -11.177,-29.747 -15.415,-43.873 -3.827,-12.759 -12.923,-31.648 -17.391,-44.269 -15.81,-44.664 -36.713,-28.336 -58.759,-37.154 7.184,-0.898 33.547,-18.721 34.783,-24.901 0.405,-2.028 -24.792,-52.064 -27.273,-54.545 -3.696,-3.697 -10.328,-5.5 -15.02,-7.51 -29.546,-12.663 -81.54,64.3 -36.758,82.213 3.394,1.358 5.965,2.863 8.695,5.138" />
      <path
         style="fill:#1a72b1"
         inkscape:connector-curvature="0"
         id="path58"
         d="m 275.644,134.57 c 9.679,-18.123 19.271,-36.428 22.734,-56.521 0.388,-2.25 3.108,-15.028 8.444,-11.932 4.815,2.793 0.548,9.472 -0.649,12.56 -7.213,18.596 -11.095,38.397 -21.435,55.893 -1.053,1.782 -2.806,7.536 -5.846,7.536 -5.2,0 -2.047,-5.996 -1.299,-8.164" />
    </g>
  </g>
</svg>
