<?xml version="1.0" encoding="UTF-8" standalone="no"?>
<!-- Created with Inkscape (http://www.inkscape.org/) -->

<svg
   xmlns:dc="http://purl.org/dc/elements/1.1/"
   xmlns:cc="http://creativecommons.org/ns#"
   xmlns:rdf="http://www.w3.org/1999/02/22-rdf-syntax-ns#"
   xmlns:svg="http://www.w3.org/2000/svg"
   xmlns="http://www.w3.org/2000/svg"
   xmlns:sodipodi="http://sodipodi.sourceforge.net/DTD/sodipodi-0.dtd"
   xmlns:inkscape="http://www.inkscape.org/namespaces/inkscape"
   width="157.73183mm"
   height="158.74487mm"
   viewBox="0 0 157.73183 158.74487"
   version="1.1"
   id="svg4554"
   inkscape:version="0.92.1 r15371"
   sodipodi:docname="snorkler-3-silhouette-blue.svg">
  <defs
     id="defs4548" />
  <sodipodi:namedview
     id="base"
     pagecolor="#ffffff"
     bordercolor="#666666"
     borderopacity="1.0"
     inkscape:pageopacity="0.0"
     inkscape:pageshadow="2"
     inkscape:zoom="1.3167091"
     inkscape:cx="298.0759"
     inkscape:cy="299.9903"
     inkscape:document-units="mm"
     inkscape:current-layer="layer1"
     showgrid="false"
     inkscape:pagecheckerboard="true"
     fit-margin-top="0"
     fit-margin-left="0"
     fit-margin-right="0"
     fit-margin-bottom="0"
     inkscape:window-width="1920"
     inkscape:window-height="1013"
     inkscape:window-x="-9"
     inkscape:window-y="-9"
     inkscape:window-maximized="1" />
  <metadata
     id="metadata4551">
    <rdf:RDF>
      <cc:Work
         rdf:about="">
        <dc:format>image/svg+xml</dc:format>
        <dc:type
           rdf:resource="http://purl.org/dc/dcmitype/StillImage" />
        <dc:title></dc:title>
      </cc:Work>
    </rdf:RDF>
  </metadata>
  <g
     inkscape:label="Layer 1"
     inkscape:groupmode="layer"
     id="layer1"
     transform="translate(-10.336464,-89.115656)">
    <g
       transform="matrix(0.26458333,0,0,0.26458333,-128.72581,73.935453)"
       id="g34"
       style="fill:#1972b0;fill-opacity:1">
      <path
         style="fill:#1972b0;fill-opacity:1"
         inkscape:connector-curvature="0"
         id="path18"
         d="m 986.761,229.515 -13.098,-6.791 c 30.683,18.457 76.48,47.628 110.212,61.12 5.302,2.121 25.589,-11.981 33.956,4.754 2.15,4.299 -14.202,3.484 -12.903,5.433 2.575,3.863 23.004,7.578 14.941,17.657 -3.701,4.626 -10.094,8.357 -16.299,7.471 -9.609,-1.373 -21.601,-13.368 -29.881,-18.337 -10.389,-6.233 -22.505,-9.554 -33.277,-14.94 -22.371,-11.186 -61.227,-43.107 -87.607,-38.71 -7.355,1.226 -13.328,14.963 -17.657,20.374 -12.811,16.014 -69.196,98.284 -83.532,101.867 -4.692,1.174 -51.879,-35.225 -57.046,-41.426 -2.91,-3.492 -9.914,-11.104 -2.716,-12.903 9.763,-9.764 15.677,-16.725 23.09,-27.844 4.245,-6.368 13.436,-15.474 19.015,-21.053 8.915,-8.915 16.358,-23.208 21.732,-33.956 7.372,-14.743 16.179,-10.788 11.545,-33.956 -3.955,-19.775 -77.094,-72.34 -93.718,-88.964 -4.424,-4.424 -26.829,-15.277 -18.337,-23.77 11.605,-11.604 13.648,0.696 24.449,3.396 2.262,0.565 -3.947,-19.768 3.395,-14.262 7.599,5.7 9.254,18.904 14.941,26.486 4.121,5.495 9.948,8.111 14.261,12.903 24.045,26.717 51.922,50.222 81.495,69.95 4.851,0 10.664,6.057 15.62,4.074 14.867,-5.947 12.12,-46.563 27.843,-57.046 15.063,-10.041 51.002,6.455 45.501,33.956 -4.084,20.42 -25.808,24.451 -35.314,38.71 -5.069,7.605 16.383,14.8 19.695,16.978 3.187,4.781 8.041,3.029 12.903,4.754" />
      <path
         style="fill:#1972b0;fill-opacity:1"
         inkscape:connector-curvature="0"
         id="path20"
         d="m 753.144,380.307 c -0.949,-2.311 -5.936,-10.866 -8.829,-10.866 -3.565,0 -8.721,8.042 -11.545,10.866 -28.085,28.086 -56.591,55.913 -84.89,84.211 -4.2,4.2 -28.879,20.696 -21.052,28.523 2.75,2.75 11.307,10.166 15.619,7.47 18.519,-11.574 30.352,-33.389 46.86,-47.538 14.457,-12.392 27.18,-26.77 42.105,-38.71 5.514,-4.411 13.406,-7.294 18.336,-12.224 6.238,-6.238 14.717,-19.513 4.075,-23.769 z" />
      <path
         style="fill:#1972b0;fill-opacity:1"
         inkscape:connector-curvature="0"
         id="path22"
         d="m 813.586,427.579 c -31.808,-22.811 -40.642,21.732 -59.94,40.673 -8.98,8.814 -17.083,18.946 -25.9,27.599 -5.928,5.819 -41.259,36.397 -37.74,45.031 1.978,4.854 20.078,16.996 24.42,13.8 4.919,-3.621 6.744,-10.977 11.1,-15.253 20.395,-20.017 65.814,-85.668 76.96,-94.419 5.496,-4.315 11.375,-12.76 8.88,-18.884" />
      <path
         style="fill:#1972b0;fill-opacity:1"
         inkscape:connector-curvature="0"
         id="path24"
         d="m 624.111,514.773 v 0" />
      <path
         style="fill:#1972b0;fill-opacity:1"
         inkscape:connector-curvature="0"
         id="path26"
         d="m 630.902,520.206 c 21.043,-9.434 14.668,-31.919 -7.47,-31.919 -18.89,0 -6.689,20.59 -38.71,32.598 -10.106,3.79 -60.934,22.169 -59.083,33.277 0.735,4.41 23.139,11.267 27.165,16.299 8.181,10.227 17.697,29.874 33.956,27.165 9.558,-1.594 35.783,-66.918 44.142,-79.457 z" />
      <path
         style="fill:#1972b0;fill-opacity:1"
         inkscape:connector-curvature="0"
         id="path28"
         d="m 700.173,575.215 c 40.612,-8.337 10.998,-46.233 -9.508,-38.031 -21.304,8.521 -7.155,20.738 -16.299,29.881 -9.198,9.198 -63.137,41.319 -65.195,51.613 -3.423,17.111 26.136,10.478 33.276,14.941 8.482,5.301 9.758,16.091 17.658,22.411 3.23,2.584 8.421,0.984 11.545,-1.358 3.405,-2.555 28.275,-72.354 30.56,-81.495 z" />
      <path
         style="fill:#1972b0;fill-opacity:1"
         inkscape:connector-curvature="0"
         id="path30"
         d="m 850.019,359.166 c -8.696,-3.776 -16.907,-9.566 -24.891,-14.631 -11.792,-7.481 -33.939,-31.476 -42.461,-35.531 -7.753,-3.689 -62.918,50.976 -62.227,52.948 0.709,2.024 43.471,33.817 44.657,33.441 4.978,-1.579 15.722,-29.111 24.891,-16.024 9.087,12.972 -7.713,19.734 -5.125,32.048 1.718,8.172 16.228,12.656 21.963,18.114 2.828,2.691 11.369,14.578 16.106,13.934 10.422,-1.417 12.646,-15.71 16.106,-22.294 18.065,-34.383 40.92,-30.727 3.66,-66.186" />
      <path
         style="fill:#1972b0;fill-opacity:1"
         inkscape:connector-curvature="0"
         id="path32"
         d="m 943.298,61.121 c -0.588,10.755 1.358,21.24 1.358,31.918 0,8.311 1.698,16.301 2.716,24.449 0.436,3.485 4.877,24.065 -3.395,22.411 -0.869,-0.174 -3.772,-14.784 -4.075,-16.299 -1.352,-6.762 -8.282,-62.347 -5.433,-65.196 2.65,-2.65 6.614,0.738 8.829,0 z" />
    </g>
  </g>
</svg>
