<?xml version="1.0" encoding="UTF-8" standalone="no"?>
<!-- Created with Inkscape (http://www.inkscape.org/) -->

<svg
   xmlns:dc="http://purl.org/dc/elements/1.1/"
   xmlns:cc="http://creativecommons.org/ns#"
   xmlns:rdf="http://www.w3.org/1999/02/22-rdf-syntax-ns#"
   xmlns:svg="http://www.w3.org/2000/svg"
   xmlns="http://www.w3.org/2000/svg"
   xmlns:sodipodi="http://sodipodi.sourceforge.net/DTD/sodipodi-0.dtd"
   xmlns:inkscape="http://www.inkscape.org/namespaces/inkscape"
   width="79.982498mm"
   height="125.53056mm"
   viewBox="0 0 79.982498 125.53056"
   version="1.1"
   id="svg4906"
   inkscape:version="0.92.1 r15371"
   sodipodi:docname="snorkler-2-outline-black.svg">
  <defs
     id="defs4900" />
  <sodipodi:namedview
     id="base"
     pagecolor="#ffffff"
     bordercolor="#666666"
     borderopacity="1.0"
     inkscape:pageopacity="0.0"
     inkscape:pageshadow="2"
     inkscape:zoom="0.35"
     inkscape:cx="-283.1377"
     inkscape:cy="328.65168"
     inkscape:document-units="mm"
     inkscape:current-layer="layer1"
     showgrid="false"
     inkscape:pagecheckerboard="true"
     fit-margin-top="0"
     fit-margin-left="0"
     fit-margin-right="0"
     fit-margin-bottom="0"
     inkscape:window-width="1920"
     inkscape:window-height="1027"
     inkscape:window-x="-8"
     inkscape:window-y="-8"
     inkscape:window-maximized="1" />
  <metadata
     id="metadata4903">
    <rdf:RDF>
      <cc:Work
         rdf:about="">
        <dc:format>image/svg+xml</dc:format>
        <dc:type
           rdf:resource="http://purl.org/dc/dcmitype/StillImage" />
        <dc:title></dc:title>
      </cc:Work>
    </rdf:RDF>
  </metadata>
  <g
     inkscape:label="Layer 1"
     inkscape:groupmode="layer"
     id="layer1"
     transform="translate(-48.455184,-110.25853)">
    <g
       transform="matrix(0.26458333,0,0,0.26458333,-195.30885,9.1922446)"
       id="g212">
      <g
         id="g198">
        <path
           style="fill-opacity:0;stroke:#000000;stroke-width:4;stroke-linecap:round;stroke-linejoin:round"
           inkscape:connector-curvature="0"
           id="path176"
           d="m 1027.053,526.824 c 2.997,18.968 8.469,52.19 28.843,60.921 17.164,7.356 53.032,-3.81 56.902,-23.16 0.612,-6.825 2.086,-37.049 0.753,-43.714" />
        <path
           style="fill-opacity:0;stroke:#000000;stroke-width:2.5;stroke-linecap:round;stroke-linejoin:round"
           inkscape:connector-curvature="0"
           id="path178"
           d="m 1053.74,479.079 c -4.704,-1.792 -6.837,2.025 -7.5,6" />
        <path
           style="fill-opacity:0;stroke:#000000;stroke-width:2.5;stroke-linecap:round;stroke-linejoin:round"
           inkscape:connector-curvature="0"
           id="path180"
           d="m 1092.74,477.579 c 4.442,-0.456 6.297,0.779 7,5" />
        <path
           style="fill-opacity:0;stroke:#000000;stroke-width:2.5;stroke-linecap:round;stroke-linejoin:round"
           inkscape:connector-curvature="0"
           id="path182"
           d="m 1076.74,498.579 c 1.456,4.212 -1.337,6.337 -4,9" />
        <g
           id="g188">
          <path
             style="fill:#383737"
             inkscape:connector-curvature="0"
             id="path184"
             d="m 1070.328,537.296 c -24.159,30.239 64.935,17.381 76.878,12.903 57.339,-21.502 48.5,-85.973 48.5,-136.5 0,-10.121 4.574,-27.238 -9,-29.5 -9.762,-1.627 -11,6.187 -11,14 0,25.298 3.551,87.88 -5.5,109 -5.214,12.165 -12.176,27.504 -25,33 -12.599,5.399 -45.493,6.251 -59,4 -5.878,-0.98 -2.57,-7.449 -8,-9 -5.381,-1.538 -8.684,0.224 -10.243,4.9" />
          <path
             style="fill-opacity:0;stroke:#383737;stroke-width:4;stroke-linecap:round;stroke-linejoin:round"
             inkscape:connector-curvature="0"
             id="path186"
             d="m 1070.328,537.296 c -24.159,30.239 64.935,17.381 76.878,12.903 57.339,-21.502 48.5,-85.973 48.5,-136.5 0,-10.121 4.574,-27.238 -9,-29.5 -9.762,-1.627 -11,6.187 -11,14 0,25.298 3.551,87.88 -5.5,109 -5.214,12.165 -12.176,27.504 -25,33 -12.599,5.399 -45.493,6.251 -59,4 -5.878,-0.98 -2.57,-7.449 -8,-9 -5.381,-1.538 -8.684,0.224 -10.243,4.9" />
        </g>
        <path
           style="fill-opacity:0;stroke:#000000;stroke-width:4;stroke-linecap:round;stroke-linejoin:round"
           inkscape:connector-curvature="0"
           id="path190"
           d="m 1013.874,511.648 c -3.842,-1.998 -11.499,-6.047 -16.446,-7.532 -3.369,-1.01 -5.868,-2.485 -9.166,-3.474 -1.009,-0.302 -13.838,-3.591 -13.864,-3.697 -0.856,-3.424 15.856,-11.49 18.486,-12.016 1.112,-0.222 11.554,-2.663 11.554,-3.697 0,-2.337 -23.278,-11.116 -19.411,-17.562 1.944,-3.239 25.949,-8.729 26.805,-13.864 0.887,-5.321 -17.133,-19.663 -13.402,-25.881 5.612,-9.353 27.215,10.938 32.351,7.857 6.464,-3.879 0.805,-27.059 11.091,-29.116 1.648,-0.33 25.262,28.657 27.729,24.956 2.954,-4.43 5.212,-32.325 12.016,-30.964 7.361,1.472 8.797,28.204 15.713,33.737 3.978,3.182 18.259,-29.265 20.797,-25.88 6.15,8.2 -2.386,28.005 6.933,34.661 3.175,2.268 28.764,-4.529 29.577,-0.462 1.082,5.407 -23.032,13.853 -22.183,18.948 0.23,1.381 30.884,16.01 29.116,18.486 -3.118,4.365 -24.957,10.484 -24.957,13.865 0,0.704 27.981,7.244 24.494,10.629 -11.968,11.621 -33.678,10.852 -33.057,11.928" />
        <g
           id="g196">
          <path
             style="fill-opacity:0;stroke:#000000;stroke-width:5;stroke-linecap:round;stroke-linejoin:round"
             inkscape:connector-curvature="0"
             id="path192"
             d="m 1125.898,467.091 c 0.642,9.78 7.668,46.611 -4,50.5 -12.611,4.204 -32.716,5.5 -46,5.5 -10.259,0 -20.637,2.037 -31,1 -6.04,-0.604 -21.882,0.958 -26.5,-3 -7.732,-6.627 -10.621,-52.467 -3,-59 11.542,-9.892 98.344,-13.321 109,0 1.751,2.189 1.013,5.076 1.5,8" />
          <path
             style="fill-opacity:0;stroke:#000000;stroke-width:4"
             inkscape:connector-curvature="0"
             id="path194"
             d="m 1113.115,508.905 c -3,0 -80,7 -85.5,3.5 -5.5,-3.5 -4.5,-38.5 -3.5,-43 1,-4.5 83,-10.5 89,0 6,10.5 3,39.5 0,39.5 z" />
        </g>
      </g>
      <path
         style="fill:#383737"
         inkscape:connector-curvature="0"
         id="path200"
         d="m 977.682,781.749 c -0.953,-10.025 -1.919,-20.06 -3.667,-29.992 -4.075,-24.454 -17.135,-82.204 -0.604,-102.556 17.073,-21.018 52.017,-6.395 76.074,-22.261 1.593,-1.084 3.089,-2.3 4.324,-3.763 4.794,2.712 10.333,3.283 15.82,3.146 7.606,-0.189 15.118,-1.746 22.409,-3.747 l 0.565,0.397 c 24.057,16.568 55.972,-1.528 68.572,23.072 12.342,24.097 2.777,85.68 5.943,111.324 0.697,5.649 1.443,9.156 0.845,14.817 z" />
      <path
         style="fill:#383737;fill-opacity:0.59200003"
         inkscape:connector-curvature="0"
         id="path202"
         d="m 971.861,753.585 c -20.518,-8.287 -42.181,-2.782 -47.426,18.613 -3.166,12.917 -5.528,26.352 1.205,38.714 14.063,25.817 80.652,46.591 106.945,45.474 30.731,-1.306 62.305,-16.733 92.183,-23.659 33.389,-7.739 37.248,1.661 74.711,-15.055 52.644,-23.491 8.692,-79.398 -32.535,-70.054 -5.574,4.872 7.613,19.565 -3.61,22.478 -16.546,4.295 -38.278,3.28 -54.923,3.28 -18.822,0 -107.687,3.669 -127.434,8.373 -6.89,1.641 0.626,-17.869 -5.863,-24.438" />
      <path
         style="fill-opacity:0;stroke:#000000;stroke-width:4;stroke-linecap:round;stroke-linejoin:round"
         inkscape:connector-curvature="0"
         id="path204"
         d="m 1007.396,678.759 c -7.753,29.215 1.25,64.619 5.252,98.786" />
      <path
         style="fill-opacity:0;stroke:#000000;stroke-width:4;stroke-linecap:round;stroke-linejoin:round"
         inkscape:connector-curvature="0"
         id="path206"
         d="m 1129.701,678.759 c 0.52,30.386 4.164,59.644 2.603,91.837" />
      <path
         style="fill-opacity:0;stroke:#000000;stroke-width:4;stroke-linecap:round;stroke-linejoin:round"
         inkscape:connector-curvature="0"
         id="path208"
         d="m 1058.48,590.025 c 2.044,11.252 1.173,24.523 -2.276,34.869" />
      <path
         style="fill-opacity:0;stroke:#000000;stroke-width:4;stroke-linecap:round;stroke-linejoin:round"
         inkscape:connector-curvature="0"
         id="path210"
         d="m 1090.155,587.529 c -3.349,12.439 -1.061,23.721 0.758,35.547" />
    </g>
  </g>
</svg>
