<?xml version="1.0" encoding="UTF-8" standalone="no"?>
<!-- Created with Inkscape (http://www.inkscape.org/) -->

<svg
   xmlns:dc="http://purl.org/dc/elements/1.1/"
   xmlns:cc="http://creativecommons.org/ns#"
   xmlns:rdf="http://www.w3.org/1999/02/22-rdf-syntax-ns#"
   xmlns:svg="http://www.w3.org/2000/svg"
   xmlns="http://www.w3.org/2000/svg"
   xmlns:sodipodi="http://sodipodi.sourceforge.net/DTD/sodipodi-0.dtd"
   xmlns:inkscape="http://www.inkscape.org/namespaces/inkscape"
   width="75.926582mm"
   height="93.408661mm"
   viewBox="0 0 75.926582 93.408661"
   version="1.1"
   id="svg5530"
   inkscape:version="0.92.1 r15371"
   sodipodi:docname="snorkler-1-outline-black.svg">
  <defs
     id="defs5524" />
  <sodipodi:namedview
     id="base"
     pagecolor="#ffffff"
     bordercolor="#666666"
     borderopacity="1.0"
     inkscape:pageopacity="0.0"
     inkscape:pageshadow="2"
     inkscape:zoom="0.35"
     inkscape:cx="-296.51667"
     inkscape:cy="382.23461"
     inkscape:document-units="mm"
     inkscape:current-layer="layer1"
     showgrid="false"
     fit-margin-top="0"
     fit-margin-left="0"
     fit-margin-right="0"
     fit-margin-bottom="0"
     inkscape:pagecheckerboard="true"
     inkscape:window-width="1920"
     inkscape:window-height="1027"
     inkscape:window-x="-8"
     inkscape:window-y="-8"
     inkscape:window-maximized="1" />
  <metadata
     id="metadata5527">
    <rdf:RDF>
      <cc:Work
         rdf:about="">
        <dc:format>image/svg+xml</dc:format>
        <dc:type
           rdf:resource="http://purl.org/dc/dcmitype/StillImage" />
        <dc:title></dc:title>
      </cc:Work>
    </rdf:RDF>
  </metadata>
  <g
     inkscape:label="Layer 1"
     inkscape:groupmode="layer"
     id="layer1"
     transform="translate(-51.995037,-156.55758)">
    <g
       transform="matrix(0.26458333,0,0,0.26458333,-175.15855,154.00178)"
       id="g258">
      <path
         style="fill-opacity:0;stroke:#000000;stroke-width:5;stroke-linecap:round;stroke-linejoin:round"
         inkscape:connector-curvature="0"
         id="path214"
         d="m 1060.067,81.757 c 0.641,9.78 7.667,46.611 -4,50.5 -12.612,4.204 -32.717,5.5 -46,5.5 -10.26,0 -20.637,2.036 -31,1 -6.041,-0.604 -21.883,0.958 -26.5,-3 -7.733,-6.628 -10.622,-52.468 -3,-59 11.541,-9.893 98.343,-13.321 109,0 1.751,2.189 1.012,5.076 1.5,8" />
      <path
         style="fill-opacity:0;stroke:#000000;stroke-width:4"
         inkscape:connector-curvature="0"
         id="path216"
         d="m 1050.567,124.257 c -3,0 -80.001,7 -85.501,3.5 -5.5,-3.5 -4.5,-38.5 -3.5,-43 1,-4.5 83.001,-10.5 89.001,0 6,10.5 3,39.5 0,39.5 z" />
      <g
         id="g222">
        <path
           style="fill:#383737"
           inkscape:connector-curvature="0"
           id="path218"
           d="m 1021.023,148.823 c -2.059,0.002 -4.711,-0.123 -6.28,1.496 -4.181,4.312 7.42,13.079 9.874,14.591 0.767,0.473 1.556,0.909 2.354,1.325 0.586,0.306 1.192,0.574 1.797,0.839 0.717,0.314 1.128,0.449 1.799,0.683 33.142,11.047 70.05,17.572 82.5,-26 3.928,-13.751 1.212,-29.333 2.5,-43.5 1.444,-15.89 1.586,-32.139 0,-48 -0.694,-6.939 1.792,-33.161 -6,-36.5 -1.165,-0.499 -12.511,-1.989 -13,-1.5 -3.84,3.839 2.744,18.107 4,22.5 9.427,32.997 10.99,78.783 1.5,112 -10.348,36.217 -64.058,23.931 -81.5,3" />
        <path
           style="fill-opacity:0;stroke:#383737;stroke-width:5;stroke-linecap:round;stroke-linejoin:round"
           inkscape:connector-curvature="0"
           id="path220"
           d="m 1021.023,148.823 c -2.059,0.002 -4.711,-0.123 -6.28,1.496 -4.181,4.312 7.42,13.079 9.874,14.591 0.767,0.473 1.556,0.909 2.354,1.325 0.586,0.306 1.192,0.574 1.797,0.839 0.717,0.314 1.128,0.449 1.799,0.683 33.142,11.047 70.05,17.572 82.5,-26 3.928,-13.751 1.212,-29.333 2.5,-43.5 1.444,-15.89 1.586,-32.139 0,-48 -0.694,-6.939 1.792,-33.161 -6,-36.5 -1.165,-0.499 -12.511,-1.989 -13,-1.5 -3.84,3.839 2.744,18.107 4,22.5 9.427,32.997 10.99,78.783 1.5,112 -10.348,36.217 -64.058,23.931 -81.5,3" />
      </g>
      <path
         style="fill-opacity:0;stroke:#000000;stroke-width:5;stroke-linecap:round;stroke-linejoin:round"
         inkscape:connector-curvature="0"
         id="path224"
         d="m 973.067,139.051 c 0.491,2.657 0.701,12.515 1,15.206 5.818,52.369 72.179,35.204 74.526,18.777" />
      <path
         style="fill-opacity:0;stroke:#000000;stroke-width:4;stroke-linecap:round;stroke-linejoin:round"
         inkscape:connector-curvature="0"
         id="path226"
         d="m 1048.553,165.707 c 0.431,-7.231 -2.787,-21.351 -4.986,-27.95" />
      <path
         style="fill-opacity:0;stroke:#000000;stroke-width:5;stroke-linecap:round;stroke-linejoin:round"
         inkscape:connector-curvature="0"
         id="path228"
         d="M 1016.644,65.486 C 924.542,-3.891 909.74,154.397 861.066,175.257" />
      <path
         style="fill-opacity:0;stroke:#000000;stroke-width:2.5;stroke-linecap:round;stroke-linejoin:round"
         inkscape:connector-curvature="0"
         id="path230"
         d="m 1003.067,65.757 c -12.465,-3.346 -27.105,-7.799 -40,-3.5 -32.175,10.725 -57.118,114 -102.5,114" />
      <path
         style="fill-opacity:0;stroke:#000000;stroke-width:2.5;stroke-linecap:round;stroke-linejoin:round"
         inkscape:connector-curvature="0"
         id="path232"
         d="m 945.102,107.796 c -12.094,6.45 -18.094,25.519 -27.035,34.461 -9.118,9.117 -38.847,33.974 -51,36" />
      <path
         style="fill-opacity:0;stroke:#000000;stroke-width:2.5;stroke-linecap:round;stroke-linejoin:round"
         inkscape:connector-curvature="0"
         id="path234"
         d="m 947.86,128.737 c -6.926,2.668 -12.233,9.755 -15.836,15.933 -18.806,32.238 -36.094,33.587 -70.458,33.587" />
      <path
         style="fill-opacity:0;stroke:#000000;stroke-width:2.5;stroke-linecap:round;stroke-linejoin:round"
         inkscape:connector-curvature="0"
         id="path236"
         d="m 960.782,139.051 c -16.413,23.123 -66.108,42.983 -93.216,36.206" />
      <path
         style="fill-opacity:0;stroke:#000000;stroke-width:5;stroke-linecap:round;stroke-linejoin:round"
         inkscape:connector-curvature="0"
         id="path238"
         d="m 973.067,141.361 c -14.269,27.995 -50.332,44.138 -80.5,41.396 -10.724,-0.975 -19.948,-6.149 -30,-9.5" />
      <path
         style="fill-opacity:0;stroke:#000000;stroke-width:2.5;stroke-linecap:round;stroke-linejoin:round"
         inkscape:connector-curvature="0"
         id="path240"
         d="m 1013.326,115.131 c 1.728,3.404 2.034,7.159 2.342,10.856" />
      <path
         style="fill-opacity:0;stroke:#000000;stroke-width:2.5;stroke-linecap:round;stroke-linejoin:round"
         inkscape:connector-curvature="0"
         id="path242"
         d="m 1033.123,96.399 c -3.99,5.207 -12.306,3.078 -16.178,-1.277" />
      <path
         style="fill-opacity:0;stroke:#000000;stroke-width:2.5;stroke-linecap:round;stroke-linejoin:round"
         inkscape:connector-curvature="0"
         id="path244"
         d="m 990.975,97.676 c -4.675,4.7 -11.002,2.506 -15.326,-1.277" />
      <path
         style="fill-opacity:0;stroke:#000000;stroke-width:5;stroke-linecap:round;stroke-linejoin:round"
         inkscape:connector-curvature="0"
         id="path246"
         d="m 1006.309,192.661 c 0.111,6.195 -1.784,13.03 -6.606,17.049 -10.615,8.845 -25.119,6.245 -36.441,13.212 -22.085,13.591 -8.147,67.097 -13.212,85.667" />
      <path
         style="fill-opacity:0;stroke:#000000;stroke-width:5;stroke-linecap:round;stroke-linejoin:round"
         inkscape:connector-curvature="0"
         id="path248"
         d="m 1033.123,186.683 c 2.937,26.674 36.52,18.371 53.1,31.124 17.453,13.426 19.392,75.363 19.392,96.11" />
      <path
         style="fill:#383737"
         inkscape:connector-curvature="0"
         id="path250"
         d="m 1080.959,318.957 c 1.461,-17.53 -5.188,-35.199 -3.623,-52.423 1.113,-12.238 4.689,-25.108 4.689,-37.293 0,-5.364 1.033,-12.916 -2.558,-17.048 l -10.793,-1.065 c 0,50.111 -68.154,51.59 -78.421,5.966 -2.826,-0.344 -12.478,0.531 -15.104,1.406 16.983,30.595 7.454,68.511 15.326,100 22.888,1.353 47.707,3.998 71.308,2.886 6.066,-0.286 12.127,-0.883 18.217,-0.883" />
      <path
         style="fill-opacity:0;stroke:#000000;stroke-width:2.5;stroke-linecap:round;stroke-linejoin:round"
         inkscape:connector-curvature="0"
         id="path252"
         d="m 950.689,287.705 c -0.55,6.848 -0.227,13.792 -0.852,20.671" />
      <path
         style="fill-opacity:0;stroke:#000000;stroke-width:2.5;stroke-linecap:round;stroke-linejoin:round"
         inkscape:connector-curvature="0"
         id="path254"
         d="m 1106.041,295.59 c -0.404,5.916 -0.639,14.747 -0.639,19.179" />
      <path
         style="fill:#383737;fill-opacity:0.54299999"
         inkscape:connector-curvature="0"
         id="path256"
         d="m 1103.623,314.482 c -39.592,9.334 -83.38,5.454 -123.599,0.426 -8.957,-1.119 -24.475,0.877 -32.179,-4.901 -3.114,-2.336 9.278,-22.654 -0.426,-23.867 -18.157,-2.27 -42.145,21.114 -41.342,38.784 0.69,15.169 20.332,21.544 31.752,25.786 36.208,13.448 164.976,20.065 196.481,-4.689 27.7,-21.764 -1.275,-60.948 -30.048,-51.357" />
    </g>
  </g>
</svg>
