<?xml version="1.0" encoding="UTF-8" standalone="no"?>
<!-- Created with Inkscape (http://www.inkscape.org/) -->

<svg
   xmlns:dc="http://purl.org/dc/elements/1.1/"
   xmlns:cc="http://creativecommons.org/ns#"
   xmlns:rdf="http://www.w3.org/1999/02/22-rdf-syntax-ns#"
   xmlns:svg="http://www.w3.org/2000/svg"
   xmlns="http://www.w3.org/2000/svg"
   xmlns:sodipodi="http://sodipodi.sourceforge.net/DTD/sodipodi-0.dtd"
   xmlns:inkscape="http://www.inkscape.org/namespaces/inkscape"
   width="123.84473mm"
   height="50.510101mm"
   viewBox="0 0 123.84473 50.510101"
   version="1.1"
   id="svg4607"
   inkscape:version="0.92.1 r15371"
   sodipodi:docname="whale-side-view-silhouette-grey.svg">
  <defs
     id="defs4601" />
  <sodipodi:namedview
     id="base"
     pagecolor="#ffffff"
     bordercolor="#666666"
     borderopacity="1.0"
     inkscape:pageopacity="0.0"
     inkscape:pageshadow="2"
     inkscape:zoom="0.35"
     inkscape:cx="-114.53415"
     inkscape:cy="135.45216"
     inkscape:document-units="mm"
     inkscape:current-layer="layer1"
     showgrid="false"
     fit-margin-top="0"
     fit-margin-left="0"
     fit-margin-right="0"
     fit-margin-bottom="0"
     inkscape:pagecheckerboard="true"
     inkscape:window-width="1920"
     inkscape:window-height="1027"
     inkscape:window-x="-8"
     inkscape:window-y="-8"
     inkscape:window-maximized="1" />
  <metadata
     id="metadata4604">
    <rdf:RDF>
      <cc:Work
         rdf:about="">
        <dc:format>image/svg+xml</dc:format>
        <dc:type
           rdf:resource="http://purl.org/dc/dcmitype/StillImage" />
        <dc:title></dc:title>
      </cc:Work>
    </rdf:RDF>
  </metadata>
  <g
     inkscape:label="Layer 1"
     inkscape:groupmode="layer"
     id="layer1"
     transform="translate(-3.8454951,-134.16162)">
    <g
       transform="matrix(0.26458333,0,0,0.26458333,-16.339686,12.982329)"
       id="g66">
      <path
         style="fill:#383737"
         inkscape:connector-curvature="0"
         id="path40"
         d="m 456.758,516.103 1.199,-16.783 c -24.668,4.934 -34.378,15.015 -66.334,19.581 -9.04,1.291 -33.696,0.002 -41.159,-5.595 -2.563,-1.922 -3.279,-6.421 -6.794,-7.592 -8.761,-2.921 -21.646,1.187 -31.169,-0.4 -22.752,-3.792 -44.545,-15.908 -67.532,-18.781 -6.966,-0.871 -13.779,1.674 -20.78,0.799 -12.469,-1.559 -24.242,-7.003 -36.763,-8.791 -11.094,-1.585 -22.488,-1.215 -33.567,-2.798 -4.754,-0.679 -10.112,0.136 -14.785,-0.799 -13.084,-2.617 -51.84,-20.026 -61.938,-3.197 -1.571,2.767 -0.88,4.938 1.469,6.954 19.116,39.036 62.027,73.134 104.404,81.61 l 37.834,16.236 c 51.294,18.214 123.364,9.618 170.78,-14.09 21.977,-10.989 42.493,-37.297 65.135,-46.354" />
      <path
         style="fill:#383737"
         inkscape:connector-curvature="0"
         id="path42"
         d="m 188.218,532.795 c 3.37,15.335 -3.48,28.554 -0.399,43.956 1.664,8.324 3.652,16.978 5.994,25.175 6.503,22.763 13.52,25.575 27.173,41.959 0.929,1.115 3.766,6.132 5.994,4.795 5.135,-3.081 -2.609,-18.664 -3.197,-22.777 -1.547,-10.828 -6.794,-21.172 -5.195,-32.368 2.888,-20.218 17.778,-54.588 -9.59,-65.535 z" />
      <path
         style="fill:#383737"
         inkscape:connector-curvature="0"
         id="path44"
         d="m 139.731,543 c -9.418,14.72 -22.083,40.521 -20.237,58.977 0.264,2.641 0.923,13.961 4.795,13.187 5.7,-1.14 31.69,-54.226 49.215,-57.731 z" />
      <path
         style="fill:#383737"
         inkscape:connector-curvature="0"
         id="path46"
         d="m 457.252,515.543 c 9.914,-0.184 19.081,3.607 28.372,6.394 9.169,2.751 58.741,15.376 58.741,-3.197 0,-0.882 -13.419,-3.008 -15.185,-3.596 -5.697,-1.899 -11.984,-2.13 -17.582,-3.996 -6.481,-2.161 -13.544,-9.57 -19.98,-12.788 -3.485,-1.742 -11.318,0.403 -13.986,-1.598 -2.824,-2.118 -4.626,-9.421 -7.593,-12.388 -5.58,-5.58 -14.735,-7.468 -19.98,-13.586 -1.711,-1.996 -2.754,-12.876 -3.197,-12.787 -17.433,3.486 -7.178,37.606 -3.596,48.351 z" />
      <g
         id="g52">
        <path
           style="fill:#383737"
           inkscape:connector-curvature="0"
           id="path48"
           d="m 83.261,469.157 c 35.744,13.328 55.28,9.112 84.824,38.655 4.986,4.986 5.868,11.862 10.789,16.783" />
        <path
           style="fill-opacity:0;stroke:#535252;stroke-width:4;stroke-linecap:round;stroke-linejoin:round"
           inkscape:connector-curvature="0"
           id="path50"
           d="m 83.261,469.157 c 35.744,13.328 55.28,9.112 84.824,38.655 4.986,4.986 5.868,11.862 10.789,16.783" />
      </g>
      <g
         id="g58">
        <path
           style="fill:#383737"
           inkscape:connector-curvature="0"
           id="path54"
           d="m 179.199,514.986 c 5.412,1.025 -0.856,-5.428 -0.288,-2.021 0.403,2.418 4.24,2.256 2.886,0 -0.203,-0.338 -0.663,1.31 -0.288,2.31" />
        <path
           style="fill-opacity:0;stroke:#535252;stroke-width:4;stroke-linecap:round;stroke-linejoin:round"
           inkscape:connector-curvature="0"
           id="path56"
           d="m 179.199,514.986 c 5.412,1.025 -0.856,-5.428 -0.288,-2.021 0.403,2.418 4.24,2.256 2.886,0 -0.203,-0.338 -0.663,1.31 -0.288,2.31" />
      </g>
      <g
         id="g64">
        <path
           style="fill:#383737"
           inkscape:connector-curvature="0"
           id="path60"
           d="m 153.98,506.302 c -18.678,-14.344 -45.509,-19.033 -67.532,-26.374 -2.404,-0.712 -4.764,-1.538 -7.06,-2.547" />
        <path
           style="fill-opacity:0;stroke:#535252;stroke-width:4;stroke-linecap:round;stroke-linejoin:round"
           inkscape:connector-curvature="0"
           id="path62"
           d="m 153.98,506.302 c -18.678,-14.344 -45.509,-19.033 -67.532,-26.374 -2.404,-0.712 -4.764,-1.538 -7.06,-2.547" />
      </g>
    </g>
  </g>
</svg>
