<?xml version="1.0" encoding="UTF-8" standalone="no"?>
<!-- Created with Inkscape (http://www.inkscape.org/) -->

<svg
   xmlns:dc="http://purl.org/dc/elements/1.1/"
   xmlns:cc="http://creativecommons.org/ns#"
   xmlns:rdf="http://www.w3.org/1999/02/22-rdf-syntax-ns#"
   xmlns:svg="http://www.w3.org/2000/svg"
   xmlns="http://www.w3.org/2000/svg"
   xmlns:sodipodi="http://sodipodi.sourceforge.net/DTD/sodipodi-0.dtd"
   xmlns:inkscape="http://www.inkscape.org/namespaces/inkscape"
   width="123.84473mm"
   height="50.510101mm"
   viewBox="0 0 123.84473 50.510101"
   version="1.1"
   id="svg4607"
   inkscape:version="0.92.1 r15371"
   sodipodi:docname="whale-humpback-side-view-silhouette-blue.svg">
  <defs
     id="defs4601" />
  <sodipodi:namedview
     id="base"
     pagecolor="#ffffff"
     bordercolor="#666666"
     borderopacity="1.0"
     inkscape:pageopacity="0.0"
     inkscape:pageshadow="2"
     inkscape:zoom="3.0572053"
     inkscape:cx="234.03727"
     inkscape:cy="95.452175"
     inkscape:document-units="mm"
     inkscape:current-layer="layer1"
     showgrid="false"
     fit-margin-top="0"
     fit-margin-left="0"
     fit-margin-right="0"
     fit-margin-bottom="0"
     inkscape:pagecheckerboard="true"
     inkscape:window-width="1920"
     inkscape:window-height="1013"
     inkscape:window-x="-9"
     inkscape:window-y="-9"
     inkscape:window-maximized="1" />
  <metadata
     id="metadata4604">
    <rdf:RDF>
      <cc:Work
         rdf:about="">
        <dc:format>image/svg+xml</dc:format>
        <dc:type
           rdf:resource="http://purl.org/dc/dcmitype/StillImage" />
        <dc:title></dc:title>
      </cc:Work>
    </rdf:RDF>
  </metadata>
  <g
     inkscape:label="Layer 1"
     inkscape:groupmode="layer"
     id="layer1"
     transform="translate(-3.8454951,-134.16162)">
    <path
       d="m 104.51087,149.53458 0.31723,-4.4405 c -6.52674,1.30545 -9.095844,3.97272 -17.550869,5.1808 -2.391833,0.34158 -8.915399,5.3e-4 -10.889985,-1.48034 -0.678127,-0.50853 -0.867569,-1.69889 -1.797579,-2.00872 -2.318015,-0.77284 -5.727171,0.31406 -8.246798,-0.10583 -6.0198,-1.0033 -11.785864,-4.20899 -17.867841,-4.96914 -1.843088,-0.23045 -3.645694,0.44291 -5.498042,0.2114 -3.299089,-0.41248 -6.414029,-1.85287 -9.726877,-2.32595 -2.935287,-0.41936 -5.94995,-0.32147 -8.881268,-0.7403 -1.25783,-0.17966 -2.675467,0.036 -3.911865,-0.21141 -3.461808,-0.69241 -13.7159998,-5.29854 -16.3877623,-0.84587 -0.4156604,0.7321 -0.2328333,1.30651 0.388673,1.83991 5.0577749,10.32828 16.4113103,19.35004 27.6235583,21.59265 l 10.010245,4.29577 c 13.571538,4.81912 32.640058,2.54477 45.185541,-3.72797 5.814748,-2.90751 11.24294,-9.86817 17.233639,-12.2645"
       id="path40"
       inkscape:connector-curvature="0"
       style="fill:#1972b0;fill-opacity:1;stroke-width:0.26458332" />
    <path
       d="m 33.459659,153.951 c 0.891646,4.05739 -0.92075,7.55492 -0.105569,11.63003 0.440267,2.20239 0.966259,4.49209 1.585913,6.66088 1.720585,6.02271 3.577167,6.76672 7.189523,11.10166 0.245798,0.29501 0.996421,1.62242 1.585912,1.26867 1.358636,-0.81518 -0.690298,-4.93818 -0.845873,-6.02641 -0.40931,-2.86491 -1.797579,-5.60176 -1.37451,-8.56403 0.764117,-5.34935 4.703762,-14.44308 -2.537354,-17.33947 z"
       id="path42"
       inkscape:connector-curvature="0"
       style="fill:#1972b0;fill-opacity:1;stroke-width:0.26458332" />
    <path
       d="m 20.630807,156.65108 c -2.491846,3.89466 -5.842793,10.72118 -5.354373,15.60433 0.06985,0.69876 0.244211,3.69385 1.268678,3.48906 1.508124,-0.30163 8.384645,-14.3473 13.021468,-15.27466 z"
       id="path44"
       inkscape:connector-curvature="0"
       style="fill:#1972b0;fill-opacity:1;stroke-width:0.26458332" />
    <path
       d="m 104.64157,149.38641 c 2.62308,-0.0487 5.04852,0.95435 7.50676,1.69175 2.42596,0.72787 15.54189,4.06823 15.54189,-0.84587 0,-0.23337 -3.55045,-0.79587 -4.0177,-0.95145 -1.50733,-0.50244 -3.17077,-0.56356 -4.6519,-1.05727 -1.71477,-0.57177 -3.58352,-2.53206 -5.28638,-3.38349 -0.92207,-0.46091 -2.99455,0.10662 -3.70046,-0.42281 -0.74718,-0.56038 -1.22396,-2.49264 -2.00898,-3.27766 -1.47638,-1.47637 -3.89864,-1.9759 -5.28638,-3.59462 -0.4527,-0.52811 -0.72866,-3.40678 -0.84587,-3.38323 -4.612481,0.92234 -1.899179,9.94992 -0.95144,12.79287 z"
       id="path46"
       inkscape:connector-curvature="0"
       style="fill:#1972b0;fill-opacity:1;stroke-width:0.26458332" />
    <g
       style="fill:#1972b0;fill-opacity:1;stroke:#12527f;stroke-opacity:1"
       id="g52"
       transform="matrix(0.26458333,0,0,0.26458333,-16.339686,12.982329)">
      <path
         d="m 83.261,469.157 c 35.744,13.328 55.28,9.112 84.824,38.655 4.986,4.986 5.868,11.862 10.789,16.783"
         id="path48"
         inkscape:connector-curvature="0"
         style="fill:#1972b0;fill-opacity:1;stroke:#12527f;stroke-opacity:1" />
      <path
         d="m 83.261,469.157 c 35.744,13.328 55.28,9.112 84.824,38.655 4.986,4.986 5.868,11.862 10.789,16.783"
         id="path50"
         inkscape:connector-curvature="0"
         style="fill:#1972b0;fill-opacity:1;stroke:#12527f;stroke-width:4;stroke-linecap:round;stroke-linejoin:round;stroke-opacity:1" />
    </g>
    <g
       style="fill:#104b74;fill-opacity:1;stroke:#12527f;stroke-opacity:1"
       id="g58"
       transform="matrix(0.26458333,0,0,0.26458333,-16.339686,12.982329)">
      <path
         d="m 179.199,514.986 c 5.412,1.025 -0.856,-5.428 -0.288,-2.021 0.403,2.418 4.24,2.256 2.886,0 -0.203,-0.338 -0.663,1.31 -0.288,2.31"
         id="path54"
         inkscape:connector-curvature="0"
         style="fill:#104b74;fill-opacity:1;stroke:#12527f;stroke-opacity:1" />
      <path
         d="m 179.199,514.986 c 5.412,1.025 -0.856,-5.428 -0.288,-2.021 0.403,2.418 4.24,2.256 2.886,0 -0.203,-0.338 -0.663,1.31 -0.288,2.31"
         id="path56"
         inkscape:connector-curvature="0"
         style="fill:#104b74;fill-opacity:1;stroke:#12527f;stroke-width:4;stroke-linecap:round;stroke-linejoin:round;stroke-opacity:1" />
    </g>
    <g
       style="fill:#1972b0;fill-opacity:1;stroke:#12527f;stroke-opacity:1"
       id="g64"
       transform="matrix(0.26458333,0,0,0.26458333,-16.339686,12.982329)">
      <path
         d="m 153.98,506.302 c -18.678,-14.344 -45.509,-19.033 -67.532,-26.374 -2.404,-0.712 -4.764,-1.538 -7.06,-2.547"
         id="path60"
         inkscape:connector-curvature="0"
         style="fill:#1972b0;fill-opacity:1;stroke:#12527f;stroke-opacity:1" />
      <path
         d="m 153.98,506.302 c -18.678,-14.344 -45.509,-19.033 -67.532,-26.374 -2.404,-0.712 -4.764,-1.538 -7.06,-2.547"
         id="path62"
         inkscape:connector-curvature="0"
         style="fill:#1972b0;fill-opacity:1;stroke:#12527f;stroke-width:4;stroke-linecap:round;stroke-linejoin:round;stroke-opacity:1" />
    </g>
  </g>
</svg>
