<?xml version="1.0" encoding="UTF-8" standalone="no"?>
<!-- Created with Inkscape (http://www.inkscape.org/) -->

<svg
   xmlns:dc="http://purl.org/dc/elements/1.1/"
   xmlns:cc="http://creativecommons.org/ns#"
   xmlns:rdf="http://www.w3.org/1999/02/22-rdf-syntax-ns#"
   xmlns:svg="http://www.w3.org/2000/svg"
   xmlns="http://www.w3.org/2000/svg"
   xmlns:sodipodi="http://sodipodi.sourceforge.net/DTD/sodipodi-0.dtd"
   xmlns:inkscape="http://www.inkscape.org/namespaces/inkscape"
   width="57.930702mm"
   height="40.952129mm"
   viewBox="0 0 57.930702 40.952129"
   version="1.1"
   id="svg4551"
   inkscape:version="0.92.1 r15371"
   sodipodi:docname="whale-fluke-above-water-silhouette-black.svg">
  <defs
     id="defs4545" />
  <sodipodi:namedview
     id="base"
     pagecolor="#ffffff"
     bordercolor="#666666"
     borderopacity="1.0"
     inkscape:pageopacity="0.0"
     inkscape:pageshadow="2"
     inkscape:zoom="5.1956143"
     inkscape:cx="165.80163"
     inkscape:cy="69.245629"
     inkscape:document-units="mm"
     inkscape:current-layer="layer1"
     showgrid="false"
     inkscape:pagecheckerboard="true"
     fit-margin-top="0"
     fit-margin-left="0"
     fit-margin-right="0"
     fit-margin-bottom="0"
     inkscape:window-width="1920"
     inkscape:window-height="1027"
     inkscape:window-x="-8"
     inkscape:window-y="-8"
     inkscape:window-maximized="1" />
  <metadata
     id="metadata4548">
    <rdf:RDF>
      <cc:Work
         rdf:about="">
        <dc:format>image/svg+xml</dc:format>
        <dc:type
           rdf:resource="http://purl.org/dc/dcmitype/StillImage" />
        <dc:title></dc:title>
      </cc:Work>
    </rdf:RDF>
  </metadata>
  <g
     inkscape:label="Layer 1"
     inkscape:groupmode="layer"
     id="layer1"
     transform="translate(-85.027051,-115.91348)">
    <g
       transform="matrix(0.26458333,0,0,0.26458333,-1.2474081,104.25328)"
       id="g5186">
      <path
         d="m 440.346,195.272 c -4.112,-17.56 -0.76,-46.352 -11.709,-61.681 -8.633,-12.087 -43.322,-18.684 -57,-26.5 -17.127,-9.787 -43.174,-18.737 -45.5,-42 -0.382,-3.821 0.985,-21.717 6,-21 7.217,1.031 9.469,17.277 19,20 9.854,2.815 20.338,-1.194 30.5,0.5 13.107,2.184 29.087,7.043 41,13 3.133,1.566 8.535,4.553 10.5,7.5 0.575,0.863 5.604,7.599 6,7.5 2.18,-0.546 13.831,-12.559 15.363,-14.091 6.607,-6.607 13,-8 24.5,-11.5 13.428,-4.087 33.335,1.292 38.137,-2.909 1.944,-1.702 11.68,-16.82 14,-14.5 3.943,3.943 3.642,18.073 2,23 -6.169,18.506 -17.395,37.947 -35.5,47 -10.301,5.15 -29.801,7.651 -36,18.5 -5.555,9.721 12.275,35.7 18.5,44 L 460.5,179.804 Z"
         id="path36"
         inkscape:connector-curvature="0"
         style="fill:#383737" />
      <path
         d="m 543,195.501 c -25.368,7.27 -55.249,-17.639 -79,-15 -11.567,1.285 -19.147,13.541 -29.576,15.031 -16.507,2.358 -33.233,-7.031 -49.924,-7.031"
         id="path38"
         inkscape:connector-curvature="0"
         style="fill-opacity:0;stroke:#383737;stroke-width:4;stroke-linecap:round;stroke-linejoin:round" />
    </g>
  </g>
</svg>
