<?xml version="1.0" encoding="UTF-8" standalone="no"?>
<svg
   xmlns:dc="http://purl.org/dc/elements/1.1/"
   xmlns:cc="http://creativecommons.org/ns#"
   xmlns:rdf="http://www.w3.org/1999/02/22-rdf-syntax-ns#"
   xmlns:svg="http://www.w3.org/2000/svg"
   xmlns="http://www.w3.org/2000/svg"
   xmlns:sodipodi="http://sodipodi.sourceforge.net/DTD/sodipodi-0.dtd"
   xmlns:inkscape="http://www.inkscape.org/namespaces/inkscape"
   version="1.1"
   x="0"
   y="0"
   width="938.44342"
   height="1646.4861"
   viewBox="0 0 938.44342 1646.4861"
   id="svg81"
   sodipodi:docname="Orpheus Island Accomodation Buildings.svg"
   inkscape:version="0.92.1 r15371">
  <metadata
     id="metadata87">
    <rdf:RDF>
      <cc:Work
         rdf:about="">
        <dc:format>image/svg+xml</dc:format>
        <dc:type
           rdf:resource="http://purl.org/dc/dcmitype/StillImage" />
        <dc:title></dc:title>
      </cc:Work>
    </rdf:RDF>
  </metadata>
  <defs
     id="defs85" />
  <sodipodi:namedview
     pagecolor="#ffffff"
     bordercolor="#666666"
     borderopacity="1"
     objecttolerance="10"
     gridtolerance="10"
     guidetolerance="10"
     inkscape:pageopacity="0"
     inkscape:pageshadow="2"
     inkscape:window-width="1128"
     inkscape:window-height="964"
     id="namedview83"
     showgrid="false"
     inkscape:pagecheckerboard="true"
     fit-margin-top="0"
     fit-margin-left="0"
     fit-margin-right="0"
     fit-margin-bottom="0"
     inkscape:zoom="0.26222222"
     inkscape:cx="135.22138"
     inkscape:cy="539.08272"
     inkscape:window-x="649"
     inkscape:window-y="14"
     inkscape:window-maximized="0"
     inkscape:current-layer="svg81" />
  <rect
     style="fill:#918e5e;fill-opacity:0.63819093;stroke:none;stroke-width:2;stroke-miterlimit:4;stroke-dasharray:none;stroke-opacity:0.68341708"
     id="rect4652"
     width="1304.2373"
     height="2025"
     x="-186.86441"
     y="-69.615608" />
  <path
     style="fill:#008500;fill-opacity:0.21608043;stroke:#000000;stroke-width:2;stroke-linecap:butt;stroke-linejoin:miter;stroke-miterlimit:4;stroke-dasharray:none;stroke-opacity:1"
     d="m -72.522846,-171.6825 c 64.8533002,148.428076 129.7055,296.85715 194.556696,445.28723 10.1706,175.42328 20.34,350.84646 30.5085,526.27115 45.764,166.5254 91.5264,333.05002 137.2882,499.57642 11.4318,194.5131 22.8626,389.0257 34.2925,583.54 -348.296696,223.7026 0,0 0,0 L 1372.8812,1840.9777 1109.7457,-88.683404 Z"
     id="path4589"
     inkscape:connector-curvature="0"
     sodipodi:nodetypes="ccccccccc" />
  <g
     id="Layer_2"
     transform="translate(352.59426,657.40336)" />
  <g
     id="g9"
     transform="matrix(3.9340681,0,0,3.9340681,-758.27067,-339.27683)"
     style="fill:#000000;fill-opacity:1">
    <path
       style="fill-opacity:1;stroke:#000000;stroke-width:1;fill:#000000"
       inkscape:connector-curvature="0"
       id="path3"
       d="m 340.124,355.699 v -96.5 h 36 v 96.5 z" />
    <path
       style="fill-opacity:1;stroke:#000000;stroke-width:1;fill:#000000"
       inkscape:connector-curvature="0"
       id="path5"
       d="m 385.124,355.699 v -96.5 h 14 v 96.5 z" />
    <path
       style="fill-opacity:1;stroke:#000000;stroke-width:1;fill:#000000"
       inkscape:connector-curvature="0"
       id="path7"
       d="M 376.124,315.661 V 296.97 h 9 v 18.691 z" />
  </g>
  <path
     style="fill:#000500;fill-opacity:0.96482414;stroke:#000000;stroke-width:3.9340682"
     d="M 654.58008 1223.291 L 654.58008 1292.6309 L 626.58008 1292.6309 L 626.58008 1371.1973 L 579.80078 1371.1973 L 579.80078 1467.6328 L 625.97852 1467.6328 L 625.97852 1543.6973 L 670.80273 1543.6973 L 670.80273 1612.9688 L 841.94336 1612.9688 L 841.94336 1521.9668 L 810.70312 1521.9668 L 810.70312 1451.334 L 763.16406 1451.334 L 763.16406 1436.2266 L 841.94336 1436.2266 L 841.94336 1497.5664 L 919.67578 1497.5664 L 919.67578 1347.7266 L 841.94336 1347.7266 L 841.94336 1409.0664 L 763.16406 1409.0664 L 763.16406 1389.0664 L 809.94336 1389.0664 L 809.94336 1319.7266 L 837.94336 1319.7266 L 837.94336 1223.291 L 654.58008 1223.291 z "
     id="path11" />
  <path
     d="M 650.48335,510.96192 741.65733,590.3544 913.08428,393.49788 821.91029,314.10113 650.48335,510.96192"
     id="path31"
     inkscape:connector-curvature="0"
     style="fill:#000000;fill-opacity:1;stroke:#000000;stroke-width:4.28107166" />
  <path
     d="M 563.90585,113.60195 592.47334,5.5987819 856.82387,60.014688 828.25193,168.01785 563.90585,113.60195"
     id="path33"
     inkscape:connector-curvature="0"
     style="fill:#000000;fill-opacity:1;stroke:#000000;stroke-width:4.18132591" />
  <path
     d="m 616.75694,123.64496 0.0472,-0.0157"
     id="path37"
     inkscape:connector-curvature="0"
     style="fill:#000000;fill-opacity:1;stroke:#000000;stroke-width:3.9340682" />
  <path
     d="m 727.87863,480.30364 -13.20666,4.26847"
     id="path41"
     inkscape:connector-curvature="0"
     style="fill:#000000;fill-opacity:1;stroke:#000000;stroke-width:3.9340682" />
  <text
     id="text51"
     transform="rotate(-101.24253)"
     x="-698.06421"
     y="-40.467163"
     style="font-size:47.21792603px;stroke-width:3.93482733">
    <tspan
       style="font-size:62.95723724px;font-family:Helvetica;fill:#000000;stroke-width:3.93482733"
       id="tspan49"
       font-size="16"
       y="-22.433851"
       x="-787.32184">Beach</tspan>
  </text>
  <g
     id="Dan"
     display="none"
     style="display:none"
     transform="translate(352.59426,657.40336)">
    <g
       id="g58">
      <path
         d="m 364,315 c -3.038,0 -5.5,-2.254 -5.5,-5.035 0,-2.781 2.462,-5.036 5.5,-5.036 3.038,0 5.5,2.255 5.5,5.036 0,2.781 -2.462,5.035 -5.5,5.035 z"
         id="path54"
         inkscape:connector-curvature="0"
         style="fill:#f00d0d" />
      <path
         d="m 364,315 c -3.038,0 -5.5,-2.254 -5.5,-5.035 0,-2.781 2.462,-5.036 5.5,-5.036 3.038,0 5.5,2.255 5.5,5.036 0,2.781 -2.462,5.035 -5.5,5.035 z"
         id="path56"
         inkscape:connector-curvature="0"
         style="fill-opacity:0;stroke:#d44b4b;stroke-width:1.5" />
    </g>
    <g
       id="g64">
      <path
         d="m 392.812,315 c -3.486,0 -6.312,-2.254 -6.312,-5.035 0,-2.781 2.826,-5.036 6.312,-5.036 3.486,0 6.312,2.255 6.312,5.036 0,2.781 -2.826,5.035 -6.312,5.035 z"
         id="path60"
         inkscape:connector-curvature="0"
         style="fill:#f00d0d" />
      <path
         d="m 392.812,315 c -3.486,0 -6.312,-2.254 -6.312,-5.035 0,-2.781 2.826,-5.036 6.312,-5.036 3.486,0 6.312,2.255 6.312,5.036 0,2.781 -2.826,5.035 -6.312,5.035 z"
         id="path62"
         inkscape:connector-curvature="0"
         style="fill-opacity:0;stroke:#d44b4b;stroke-width:1.5" />
    </g>
    <text
       transform="matrix(1,-0.016,0.016,1,419.783,277.199)"
       id="text68">
      <tspan
         x="-34.257999"
         y="3.1659999"
         font-size="16"
         id="tspan66"
         style="font-size:16px;font-family:Helvetica;fill:#000000">Verandah</tspan>
    </text>
    <g
       id="g74">
      <path
         d="m 419.5,291.516 -6.191,5.19"
         id="path70"
         inkscape:connector-curvature="0"
         style="fill-opacity:0;stroke:#000000;stroke-width:5" />
      <path
         d="m 413.309,296.706 -0.71,-6.451 -7.566,13.389 14.504,-5.112 z"
         id="path72"
         inkscape:connector-curvature="0"
         style="fill:#000000;fill-opacity:1;stroke:#000000;stroke-width:5;stroke-opacity:1" />
    </g>
    <path
       d="M 419.5,291.516 430.582,286"
       id="path76"
       inkscape:connector-curvature="0"
       style="fill-opacity:0;stroke:#000000;stroke-width:5" />
    <path
       d="M 403.5,304.929 H 408"
       id="path78"
       inkscape:connector-curvature="0"
       style="fill-opacity:0;stroke:#000000;stroke-width:5" />
  </g>
  <rect
     style="fill:#000500;fill-opacity:0.96482412;stroke:#1c8e02;stroke-width:1.90516996;stroke-miterlimit:4;stroke-dasharray:none;stroke-opacity:1"
     id="rect4648"
     width="106.86318"
     height="80.393547"
     x="754.96912"
     y="203.87405" />
  <rect
     style="fill:#000500;fill-opacity:0.96482412;stroke:none;stroke-width:2.14199805;stroke-miterlimit:4;stroke-dasharray:none;stroke-opacity:1"
     id="rect4650"
     width="170.26982"
     height="426.47238"
     x="549.55664"
     y="257.27078"
     transform="matrix(0.9639833,-0.26596277,0.2059854,0.97855506,0,0)" />
</svg>
