<?xml version="1.0" encoding="UTF-8" standalone="no"?>
<!-- Generator: Adobe Illustrator 16.0.0, SVG Export Plug-In . SVG Version: 6.00 Build 0)  -->

<svg
   xmlns:dc="http://purl.org/dc/elements/1.1/"
   xmlns:cc="http://creativecommons.org/ns#"
   xmlns:rdf="http://www.w3.org/1999/02/22-rdf-syntax-ns#"
   xmlns:svg="http://www.w3.org/2000/svg"
   xmlns="http://www.w3.org/2000/svg"
   xmlns:sodipodi="http://sodipodi.sourceforge.net/DTD/sodipodi-0.dtd"
   xmlns:inkscape="http://www.inkscape.org/namespaces/inkscape"
   version="1.1"
   id="Capa_1"
   x="0px"
   y="0px"
   width="462.53201"
   height="462.534"
   viewBox="0 0 462.53202 462.53401"
   xml:space="preserve"
   sodipodi:docname="chevron-outline-blue-north.svg"
   inkscape:version="0.92.2 5c3e80d, 2017-08-06"><metadata
     id="metadata41"><rdf:RDF><cc:Work
         rdf:about=""><dc:format>image/svg+xml</dc:format><dc:type
           rdf:resource="http://purl.org/dc/dcmitype/StillImage" /><dc:title></dc:title></cc:Work></rdf:RDF></metadata><defs
     id="defs39" /><sodipodi:namedview
     pagecolor="#ffffff"
     bordercolor="#666666"
     borderopacity="1"
     objecttolerance="10"
     gridtolerance="10"
     guidetolerance="10"
     inkscape:pageopacity="0"
     inkscape:pageshadow="2"
     inkscape:window-width="1566"
     inkscape:window-height="790"
     id="namedview37"
     showgrid="false"
     inkscape:zoom="0.53815792"
     inkscape:cx="-27.951099"
     inkscape:cy="231.2675"
     inkscape:window-x="200"
     inkscape:window-y="65"
     inkscape:window-maximized="0"
     inkscape:current-layer="Capa_1"
     fit-margin-top="0"
     fit-margin-left="0"
     fit-margin-right="0"
     fit-margin-bottom="0" /><g
     id="g4"
     style="fill:#007bb7;fill-opacity:1;stroke:#ffffff;stroke-width:24;stroke-miterlimit:4;stroke-dasharray:none;stroke-opacity:1"
     transform="translate(12,12)"><path
       d="M 409.133,109.203 C 389.525,75.611 362.928,49.014 329.335,29.407 295.736,9.801 259.058,0 219.273,0 179.492,0 142.803,9.801 109.21,29.407 75.615,49.011 49.018,75.608 29.41,109.203 9.801,142.8 0,179.489 0,219.267 c 0,39.78 9.804,76.463 29.407,110.062 19.607,33.592 46.204,60.189 79.799,79.798 33.597,19.605 70.283,29.407 110.063,29.407 39.78,0 76.47,-9.802 110.065,-29.407 33.593,-19.602 60.189,-46.206 79.795,-79.798 19.603,-33.596 29.403,-70.284 29.403,-110.062 0.001,-39.782 -9.8,-76.472 -29.399,-110.064 z m -47.393,150.314 -29.123,29.129 c -3.621,3.614 -7.901,5.424 -12.847,5.424 -4.948,0 -9.236,-1.81 -12.847,-5.424 l -87.654,-87.653 -87.646,87.653 c -3.616,3.614 -7.898,5.424 -12.847,5.424 -4.95,0 -9.233,-1.81 -12.85,-5.424 l -29.12,-29.129 c -3.617,-3.607 -5.426,-7.898 -5.426,-12.847 0,-4.942 1.809,-9.227 5.426,-12.848 l 129.62,-129.616 c 3.617,-3.617 7.898,-5.424 12.847,-5.424 4.949,0 9.238,1.807 12.846,5.424 L 361.74,233.822 c 3.613,3.621 5.424,7.905 5.424,12.848 0,4.948 -1.807,9.239 -5.424,12.847 z"
       id="path2"
       inkscape:connector-curvature="0"
       style="fill:#007bb7;fill-opacity:1;stroke:#ffffff;stroke-width:24;stroke-miterlimit:4;stroke-dasharray:none;stroke-opacity:1" /></g><g
     id="g6"
     transform="translate(12,12)" /><g
     id="g8"
     transform="translate(12,12)" /><g
     id="g10"
     transform="translate(12,12)" /><g
     id="g12"
     transform="translate(12,12)" /><g
     id="g14"
     transform="translate(12,12)" /><g
     id="g16"
     transform="translate(12,12)" /><g
     id="g18"
     transform="translate(12,12)" /><g
     id="g20"
     transform="translate(12,12)" /><g
     id="g22"
     transform="translate(12,12)" /><g
     id="g24"
     transform="translate(12,12)" /><g
     id="g26"
     transform="translate(12,12)" /><g
     id="g28"
     transform="translate(12,12)" /><g
     id="g30"
     transform="translate(12,12)" /><g
     id="g32"
     transform="translate(12,12)" /><g
     id="g34"
     transform="translate(12,12)" /></svg>