<?xml version="1.0" encoding="UTF-8" standalone="no"?>
<!-- Generator: Adobe Illustrator 19.1.0, SVG Export Plug-In . SVG Version: 6.00 Build 0)  -->

<svg
   xmlns:dc="http://purl.org/dc/elements/1.1/"
   xmlns:cc="http://creativecommons.org/ns#"
   xmlns:rdf="http://www.w3.org/1999/02/22-rdf-syntax-ns#"
   xmlns:svg="http://www.w3.org/2000/svg"
   xmlns="http://www.w3.org/2000/svg"
   xmlns:sodipodi="http://sodipodi.sourceforge.net/DTD/sodipodi-0.dtd"
   xmlns:inkscape="http://www.inkscape.org/namespaces/inkscape"
   version="1.1"
   id="Capa_1"
   x="0px"
   y="0px"
   viewBox="0 0 487.22246 465.20003"
   xml:space="preserve"
   sodipodi:docname="star.svg"
   width="487.22244"
   height="465.20001"
   inkscape:version="0.92.2 5c3e80d, 2017-08-06"><metadata
     id="metadata41"><rdf:RDF><cc:Work
         rdf:about=""><dc:format>image/svg+xml</dc:format><dc:type
           rdf:resource="http://purl.org/dc/dcmitype/StillImage" /><dc:title></dc:title></cc:Work></rdf:RDF></metadata><defs
     id="defs39" /><sodipodi:namedview
     pagecolor="#ffffff"
     bordercolor="#666666"
     borderopacity="1"
     objecttolerance="10"
     gridtolerance="10"
     guidetolerance="10"
     inkscape:pageopacity="0"
     inkscape:pageshadow="2"
     inkscape:window-width="1575"
     inkscape:window-height="1156"
     id="namedview37"
     showgrid="false"
     fit-margin-top="0"
     fit-margin-left="0"
     fit-margin-right="0"
     fit-margin-bottom="0"
     inkscape:zoom="0.4843788"
     inkscape:cx="-125.93456"
     inkscape:cy="232.60001"
     inkscape:window-x="592"
     inkscape:window-y="131"
     inkscape:window-maximized="0"
     inkscape:current-layer="Capa_1" /><g
     id="g4"
     transform="translate(-6.488226e-5,-11.011)"><path
       d="m 486.554,186.811 c -1.6,-4.9 -5.8,-8.4 -10.9,-9.2 l -152,-21.6 -68.4,-137.5 c -2.3,-4.6 -7,-7.5 -12.1,-7.5 v 0 c -5.1,0 -9.8,2.9 -12.1,7.6 l -67.5,137.9 -152,22.6 c -5.1,0.8 -9.3,4.3 -10.9,9.2 -1.6,4.9 -0.2,10.3 3.5,13.8 l 110.3,106.9 -25.5,151.4 c -0.9,5.1 1.2,10.2 5.4,13.2 2.3,1.7 5.1,2.6 7.9,2.6 2.2,0 4.3,-0.5 6.3,-1.6 l 135.7,-71.9 136.1,71.1 c 2,1 4.1,1.5 6.2,1.5 v 0 c 7.4,0 13.5,-6.1 13.5,-13.5 0,-1.1 -0.1,-2.1 -0.4,-3.1 l -26.3,-150.5 109.6,-107.5 c 3.9,-3.6 5.2,-9 3.6,-13.9 z m -137,107.1 c -3.2,3.1 -4.6,7.6 -3.8,12 l 22.9,131.3 -118.2,-61.7 c -3.9,-2.1 -8.6,-2 -12.6,0 l -117.8,62.4 22.1,-131.5 c 0.7,-4.4 -0.7,-8.8 -3.9,-11.9 l -95.6,-92.8 131.9,-19.6 c 4.4,-0.7 8.2,-3.4 10.1,-7.4 l 58.6,-119.7 59.4,119.4 c 2,4 5.8,6.7 10.2,7.4 l 132,18.8 z"
       id="path2"
       inkscape:connector-curvature="0" /></g><g
     id="g6"
     transform="translate(-6.488226e-5,-11.011)" /><g
     id="g8"
     transform="translate(-6.488226e-5,-11.011)" /><g
     id="g10"
     transform="translate(-6.488226e-5,-11.011)" /><g
     id="g12"
     transform="translate(-6.488226e-5,-11.011)" /><g
     id="g14"
     transform="translate(-6.488226e-5,-11.011)" /><g
     id="g16"
     transform="translate(-6.488226e-5,-11.011)" /><g
     id="g18"
     transform="translate(-6.488226e-5,-11.011)" /><g
     id="g20"
     transform="translate(-6.488226e-5,-11.011)" /><g
     id="g22"
     transform="translate(-6.488226e-5,-11.011)" /><g
     id="g24"
     transform="translate(-6.488226e-5,-11.011)" /><g
     id="g26"
     transform="translate(-6.488226e-5,-11.011)" /><g
     id="g28"
     transform="translate(-6.488226e-5,-11.011)" /><g
     id="g30"
     transform="translate(-6.488226e-5,-11.011)" /><g
     id="g32"
     transform="translate(-6.488226e-5,-11.011)" /><g
     id="g34"
     transform="translate(-6.488226e-5,-11.011)" /><path
     style="opacity:1;fill:#ffffff;fill-opacity:1;fill-rule:nonzero;stroke:none;stroke-width:78.027771;stroke-miterlimit:4;stroke-dasharray:none;stroke-dashoffset:207.87400818;stroke-opacity:1"
     d="m 92.679927,459.26436 c -3.642028,-4.02441 -3.36214,-6.46721 9.486403,-82.7958 L 115.40548,297.8195 58.072881,241.77768 C 18.711644,203.30262 0.75367496,184.3801 0.78300861,181.4107 0.88439786,171.14719 5.1308599,169.98687 86.841787,157.89569 L 164.32215,146.43053 197.8868,77.802802 c 18.46055,-37.74525 35.23678,-70.4754203 37.28051,-72.7337097 4.58955,-5.07139301 11.7085,-5.29136067 15.95867,-0.4931056 1.76011,1.9870812 18.62928,34.5029553 37.48704,72.2574973 18.85776,37.754546 34.51638,68.695306 34.7969,68.757256 0.28052,0.062 35.15998,5.06719 77.50987,11.12275 59.79781,8.55042 77.90056,11.82525 81.03163,14.65884 9.05727,8.19671 7.04267,10.85898 -52.84588,69.83526 l -56.87767,56.01126 13.62415,77.4083 c 10.36488,58.89013 13.12291,78.50844 11.52889,82.00692 -4.81369,10.56491 -8.50374,9.25624 -82.90964,-29.40387 l -70.44878,-36.6041 -7.53477,4.12225 c -53.5052,29.27252 -130.9024,68.66275 -134.91429,68.66275 -2.827416,0 -6.829491,-1.86604 -8.893503,-4.14674 z m 97.520453,-68.38482 c 27.51148,-14.61045 51.75715,-26.56444 53.87927,-26.56444 2.1221,0 30.59715,13.97268 63.27789,31.05039 32.68075,17.07773 60.04871,30.78085 60.81768,30.45137 0.76896,-0.32945 -3.8305,-30.32781 -10.22101,-66.66301 -6.39054,-36.3352 -11.21379,-67.68407 -10.71835,-69.66415 0.49544,-1.98009 22.7274,-25.02693 49.40435,-51.21517 26.67697,-26.18826 48.01391,-48.10469 47.41543,-48.70318 -0.5985,-0.59849 -29.73191,-5.17505 -64.74092,-10.17014 -35.00901,-4.99509 -65.74974,-9.58097 -68.31275,-10.19086 -3.72395,-0.88614 -10.87883,-13.54116 -35.6193,-63.00081 -17.0276,-34.040562 -31.49155,-61.89193 -32.14209,-61.89193 -0.65057,0 -14.60236,27.383938 -31.00398,60.8532 -16.40163,33.46926 -31.4983,61.75078 -33.54815,62.84783 -2.04985,1.09705 -33.38503,6.37997 -69.63374,11.73984 -36.248698,5.35986 -66.29811,10.06302 -66.776467,10.45145 -0.478357,0.38843 21.788825,22.82873 49.48263,49.86732 l 50.352367,49.16107 -10.92921,65.92527 c -6.01106,36.25889 -11.40407,67.60752 -11.98444,69.66359 -1.26055,4.46566 -1.97308,4.80634 71.00079,-33.94764 z"
     id="path856"
     inkscape:connector-curvature="0" /></svg>