<?xml version="1.0" encoding="UTF-8" standalone="no"?>
<!-- Generator: Adobe Illustrator 16.0.0, SVG Export Plug-In . SVG Version: 6.00 Build 0)  -->

<svg
   xmlns:dc="http://purl.org/dc/elements/1.1/"
   xmlns:cc="http://creativecommons.org/ns#"
   xmlns:rdf="http://www.w3.org/1999/02/22-rdf-syntax-ns#"
   xmlns:svg="http://www.w3.org/2000/svg"
   xmlns="http://www.w3.org/2000/svg"
   xmlns:sodipodi="http://sodipodi.sourceforge.net/DTD/sodipodi-0.dtd"
   xmlns:inkscape="http://www.inkscape.org/namespaces/inkscape"
   version="1.1"
   id="Capa_1"
   x="0px"
   y="0px"
   width="512"
   height="416"
   viewBox="0 0 512 416"
   xml:space="preserve"
   sodipodi:docname="map-with-placeholder.svg"
   inkscape:version="0.92.2 5c3e80d, 2017-08-06"><metadata
     id="metadata4177"><rdf:RDF><cc:Work
         rdf:about=""><dc:format>image/svg+xml</dc:format><dc:type
           rdf:resource="http://purl.org/dc/dcmitype/StillImage" /><dc:title></dc:title></cc:Work></rdf:RDF></metadata><defs
     id="defs4175" /><sodipodi:namedview
     pagecolor="#ffffff"
     bordercolor="#666666"
     borderopacity="1"
     objecttolerance="10"
     gridtolerance="10"
     guidetolerance="10"
     inkscape:pageopacity="0"
     inkscape:pageshadow="2"
     inkscape:window-width="2083"
     inkscape:window-height="1231"
     id="namedview4173"
     showgrid="false"
     fit-margin-top="0"
     fit-margin-left="0"
     fit-margin-right="0"
     fit-margin-bottom="0"
     inkscape:zoom="1"
     inkscape:cx="162.27417"
     inkscape:cy="329.84358"
     inkscape:window-x="109"
     inkscape:window-y="27"
     inkscape:window-maximized="0"
     inkscape:current-layer="Capa_1" /><g
     id="g4140"
     transform="translate(0,-48)"><path
       d="m 416,48 c -44.188,0 -80,35.813 -80,80 0,11.938 2.625,23.281 7.312,33.438 L 416,304 488.688,161.437 C 493.375,151.281 496,139.938 496,128 496,83.813 460.188,48 416,48 Z m 0,128 c -26.5,0 -48,-21.5 -48,-48 0,-26.5 21.5,-48 48,-48 26.5,0 48,21.5 48,48 0,26.5 -21.5,48 -48,48 z m 7.938,114.469 45.125,95.219 -73.844,36.906 -24.75,-123.812 4.156,-4.156 25.438,-26.438 c -13.41667,-1.33333 22.01163,-60.67006 -40.25,-4 L 352,272 256,208 160,272 96,208 0,400 128,464 256,400 384,464 512,400 437,257.031 Z M 116.75,422.594 42.937,385.688 104.75,262 l 32.625,32.625 4.156,4.156 z M 240,372.219 l -89.5,44.75 23.125,-115.594 4.125,-2.75 62.25,-41.5 z m 32,0 V 257.125 l 62.25,41.5 4.094,2.75 23.125,115.594 z"
       id="path4138"
       inkscape:connector-curvature="0"
       sodipodi:nodetypes="sscccssssssscccccccccccccccccccccccccccccccccccc" /></g><g
     id="g4142"
     transform="translate(0,-48)" /><g
     id="g4144"
     transform="translate(0,-48)" /><g
     id="g4146"
     transform="translate(0,-48)" /><g
     id="g4148"
     transform="translate(0,-48)" /><g
     id="g4150"
     transform="translate(0,-48)" /><g
     id="g4152"
     transform="translate(0,-48)" /><g
     id="g4154"
     transform="translate(0,-48)" /><g
     id="g4156"
     transform="translate(0,-48)" /><g
     id="g4158"
     transform="translate(0,-48)" /><g
     id="g4160"
     transform="translate(0,-48)" /><g
     id="g4162"
     transform="translate(0,-48)" /><g
     id="g4164"
     transform="translate(0,-48)" /><g
     id="g4166"
     transform="translate(0,-48)" /><g
     id="g4168"
     transform="translate(0,-48)" /><g
     id="g4170"
     transform="translate(0,-48)" /><path
     style="fill:#cccccc"
     d="m 80.37417,355.72944 c -19.8,-9.89692 -36.137986,-18.12008 -36.306635,-18.27368 -0.168649,-0.1536 13.481324,-27.85228 30.333273,-61.55261 l 30.639912,-61.27333 17.99994,17.99994 17.99995,17.99995 -12.33322,61.54706 -12.33322,61.54707 z"
     id="path4195"
     inkscape:connector-curvature="0" /><path
     style="fill:#cccccc"
     d="m 161.5132,316.20642 c 5.69068,-28.4625 10.83612,-54.13329 11.43432,-57.0462 l 1.08763,-5.29621 32.91951,-21.96128 32.91951,-21.96129 v 57.00527 57.00526 l -43.99556,22.00223 c -24.19755,12.10122 -44.15677,22.00222 -44.35382,22.00222 -0.19705,0 4.29773,-23.2875 9.98841,-51.75 z"
     id="path4197"
     inkscape:connector-curvature="0" /><path
     style="fill:#cccccc"
     d="m 316.62417,345.84658 -43.75,-21.89467 v -56.49774 c 0,-31.07376 0.23029,-56.49775 0.51175,-56.49775 0.37305,0 62.48142,41.06663 64.25376,42.48518 0.3189,0.25524 23.11925,113.95289 22.89251,114.15724 -0.0869,0.0783 -19.84552,-9.71018 -43.90802,-21.75226 z"
     id="path4199"
     inkscape:connector-curvature="0" /><path
     style="fill:#cccccc"
     d="m 408.88642,126.8364 c -12.43077,-1.55358 -26.71438,-11.10262 -33.68564,-22.51991 -6.00601,-9.836445 -8.06086,-26.085677 -4.73315,-37.428568 4.42659,-15.088572 16.67242,-27.40381 32.24607,-32.428844 4.05759,-1.309232 7.80078,-1.631759 15.59108,-1.343384 9.48304,0.351036 10.83055,0.665651 17.97549,4.196867 18.8047,9.293789 29.6843,29.513434 26.57739,49.39386 -4.10232,26.249839 -27.25965,43.468329 -53.97124,40.129979 z"
     id="path4201"
     inkscape:connector-curvature="0" /><path
     style="fill:#ff0000"
     d="M 404.87251,233.20283 C 399.0966,221.7923 382.17903,188.38142 367.27791,158.95642 337.13608,99.43584 336.86142,98.719292 336.88895,79.678 c 0.0223,-15.402192 3.3797,-27.615056 11.14297,-40.533296 7.90242,-13.149786 19.25342,-23.655715 32.74532,-30.3074846 11.29405,-5.5681842 17.42876,-7.0173314 32.14675,-7.5937375 11.68344,-0.45756308 14.71182,-0.2368111 21.98589,1.6026473 22.63554,5.7240477 41.88041,21.1183608 52.01821,41.6102918 6.02971,12.1881 8.19427,21.714516 8.17978,36 -0.0197,19.379219 -0.14836,19.690899 -41.9815,101.659739 -20.16519,39.51214 -36.90883,71.83864 -37.20809,71.83667 -0.29926,-0.002 -5.26986,-9.33947 -11.04577,-20.75 z m 26.28321,-107.32421 c 20.30758,-6.78545 33.07721,-24.76876 32.96272,-46.421002 -0.10059,-19.021791 -10.36974,-34.854587 -28.09067,-43.309664 -6.44547,-3.075289 -8.54828,-3.563018 -17.14686,-3.977068 -8.03404,-0.386867 -11.04313,-0.09447 -16.69512,1.622266 -7.35718,2.234674 -17.11706,8.045625 -21.46062,12.777468 -21.47037,23.389698 -15.07848,61.864 12.649,76.13737 7.92533,4.07975 12.35558,5.10999 22.28155,5.18153 6.8756,0.0496 10.89347,-0.4717 15.5,-2.0109 z"
     id="path5018"
     inkscape:connector-curvature="0" /><path
     style="fill:#ffffff;fill-opacity:1"
     d="m 395.39731,372.72186 c -0.23427,-0.69599 -5.64919,-27.59044 -12.03315,-59.76544 -6.38395,-32.175 -11.80828,-59.1997 -12.05406,-60.0549 -0.2829,-0.98439 4.63066,-6.84777 13.39178,-15.9805 l 13.83865,-14.4256 8.41682,16.72675 c 4.62925,9.19971 8.65634,16.72843 8.94909,16.7305 0.29275,0.002 2.13378,-2.94413 4.09116,-6.54709 l 3.55889,-6.55085 22.17564,46.80085 c 12.1966,25.74046 22.16808,47.13712 22.15884,47.54814 -0.009,0.41101 -16.22826,8.85546 -36.04226,18.76543 -24.04339,12.02531 -36.16713,17.59726 -36.4514,16.75271 z"
     id="path5020"
     inkscape:connector-curvature="0" /><path
     style="fill:#ffffff;fill-opacity:1"
     d="m 80.37417,355.22964 c -19.25,-9.63178 -35.323079,-18.02103 -35.717954,-18.64278 -0.394875,-0.62174 -0.279571,-1.28137 0.256231,-1.46585 0.535801,-0.18448 0.719823,-0.74698 0.408937,-1.25 -0.310887,-0.50302 -0.06213,-0.91459 0.552786,-0.91459 0.614919,0 0.839919,-0.45 0.5,-1 -0.339919,-0.55 -0.114919,-1 0.5,-1 0.614919,0 0.839919,-0.45 0.5,-1 -0.339919,-0.55 -0.114919,-1 0.5,-1 0.614919,0 0.839919,-0.45 0.5,-1 -0.339919,-0.55 -0.114919,-1 0.5,-1 0.614919,0 0.839919,-0.45 0.5,-1 -0.339919,-0.55 -0.114919,-1 0.5,-1 0.614919,0 0.839919,-0.45 0.5,-1 -0.339919,-0.55 -0.114919,-1 0.5,-1 0.614919,0 0.839919,-0.45 0.5,-1 -0.339919,-0.55 -0.114919,-1 0.5,-1 0.614919,0 0.839919,-0.45 0.5,-1 -0.339919,-0.55 -0.114919,-1 0.5,-1 0.614919,0 0.839919,-0.45 0.5,-1 -0.339919,-0.55 -0.114919,-1 0.5,-1 0.614919,0 0.839919,-0.45 0.5,-1 -0.339919,-0.55 -0.114919,-1 0.5,-1 0.614919,0 0.839919,-0.45 0.5,-1 -0.339919,-0.55 -0.114919,-1 0.5,-1 0.614919,0 0.839919,-0.45 0.5,-1 -0.339919,-0.55 -0.114919,-1 0.5,-1 0.614919,0 0.839919,-0.45 0.5,-1 -0.339919,-0.55 -0.114919,-1 0.5,-1 0.614919,0 0.839919,-0.45 0.5,-1 -0.339919,-0.55 -0.114919,-1 0.5,-1 0.614919,0 0.839919,-0.45 0.5,-1 -0.339919,-0.55 -0.114919,-1 0.5,-1 0.614919,0 0.839919,-0.45 0.5,-1 -0.339919,-0.55 -0.114919,-1 0.5,-1 0.614919,0 0.839919,-0.45 0.5,-1 -0.339919,-0.55 -0.114919,-1 0.5,-1 0.614919,0 0.839919,-0.45 0.5,-1 -0.339919,-0.55 -0.114919,-1 0.5,-1 0.614919,0 0.839919,-0.45 0.5,-1 -0.339919,-0.55 -0.114919,-1 0.5,-1 0.614919,0 0.839919,-0.45 0.5,-1 -0.339919,-0.55 -0.114919,-1 0.5,-1 0.614919,0 0.839919,-0.45 0.5,-1 -0.339919,-0.55 -0.114919,-1 0.5,-1 0.614919,0 0.839919,-0.45 0.5,-1 -0.339919,-0.55 -0.114919,-1 0.5,-1 0.614919,0 0.839919,-0.45 0.5,-1 -0.339919,-0.55 -0.114919,-1 0.5,-1 0.614919,0 0.839919,-0.45 0.5,-1 -0.339919,-0.55 -0.114919,-1 0.5,-1 0.614919,0 0.839919,-0.45 0.5,-1 -0.339919,-0.55 -0.114919,-1 0.5,-1 0.614919,0 0.839919,-0.45 0.5,-1 -0.339919,-0.55 -0.114919,-1 0.5,-1 0.614919,0 0.839919,-0.45 0.5,-1 -0.339919,-0.55 -0.114919,-1 0.5,-1 0.614919,0 0.839919,-0.45 0.5,-1 -0.339919,-0.55 -0.114919,-1 0.5,-1 0.614919,0 0.839919,-0.45 0.5,-1 -0.339919,-0.55 -0.114919,-1 0.5,-1 0.614919,0 0.839919,-0.45 0.5,-1 -0.339919,-0.55 -0.114919,-1 0.5,-1 0.614919,0 0.839919,-0.45 0.5,-1 -0.339919,-0.55 -0.114919,-1 0.5,-1 0.614919,0 0.839919,-0.45 0.5,-1 -0.339919,-0.55 -0.114919,-1 0.5,-1 0.614919,0 0.839919,-0.45 0.5,-1 -0.339919,-0.55 -0.114919,-1 0.5,-1 0.614919,0 0.839919,-0.45 0.5,-1 -0.339919,-0.55 -0.114919,-1 0.5,-1 0.614919,0 0.839919,-0.45 0.5,-1 -0.339919,-0.55 -0.114919,-1 0.5,-1 0.614919,0 0.839919,-0.45 0.5,-1 -0.339919,-0.55 -0.114919,-1 0.5,-1 0.614919,0 0.839919,-0.45 0.5,-1 -0.339919,-0.55 -0.114919,-1 0.5,-1 0.614919,0 0.839919,-0.45 0.5,-1 -0.339919,-0.55 -0.114919,-1 0.5,-1 0.614919,0 0.839919,-0.45 0.5,-1 -0.339919,-0.55 -0.114919,-1 0.5,-1 0.614919,0 0.839919,-0.45 0.5,-1 -0.339919,-0.55 -0.114919,-1 0.5,-1 0.614919,0 0.839919,-0.45 0.5,-1 -0.339919,-0.55 -0.114919,-1 0.5,-1 0.614919,0 0.839919,-0.45 0.5,-1 -0.339919,-0.55 -0.114919,-1 0.5,-1 0.614919,0 0.839919,-0.45 0.5,-1 -0.339919,-0.55 -0.114919,-1 0.5,-1 0.614919,0 0.839919,-0.45 0.5,-1 -0.339919,-0.55 -0.114919,-1 0.5,-1 0.614919,0 0.839919,-0.45 0.5,-1 -0.339919,-0.55 -0.114919,-1 0.5,-1 0.614919,0 0.839919,-0.45 0.5,-1 -0.339919,-0.55 -0.114919,-1 0.5,-1 0.614919,0 0.839919,-0.45 0.5,-1 -0.339919,-0.55 -0.114919,-1 0.5,-1 0.614919,0 0.839919,-0.45 0.5,-1 -0.339919,-0.55 -0.114919,-1 0.5,-1 0.614919,0 0.839919,-0.45 0.5,-1 -0.339919,-0.55 -0.114919,-1 0.5,-1 0.614919,0 0.839919,-0.45 0.5,-1 -0.339919,-0.55 -0.114919,-1 0.5,-1 0.614919,0 0.839919,-0.45 0.5,-1 -0.339919,-0.55 -0.114919,-1 0.5,-1 0.614919,0 0.839919,-0.45 0.5,-1 -0.339919,-0.55 -0.114919,-1 0.5,-1 0.614919,0 0.839919,-0.45 0.5,-1 -0.339919,-0.55 -0.114919,-1 0.5,-1 0.614919,0 0.839919,-0.45 0.5,-1 -0.339919,-0.55 -0.114919,-1 0.5,-1 0.614919,0 0.839919,-0.45 0.5,-1 -0.339919,-0.55 -0.114919,-1 0.5,-1 0.61492,0 0.83992,-0.45 0.5,-1 -0.33992,-0.55 -0.11492,-1 0.5,-1 0.61492,0 0.83992,-0.45 0.5,-1 -0.33992,-0.55 -0.11492,-1 0.5,-1 0.61492,0 0.83992,-0.45 0.5,-1 -0.33992,-0.55 -0.11492,-1 0.5,-1 0.61492,0 0.83992,-0.45 0.5,-1 -0.33992,-0.55 -0.11492,-1 0.5,-1 0.61492,0 0.83992,-0.45 0.5,-1 -2.30529,-3.73004 3.33338,1.32291 18.69159,16.75 l 17.67075,17.75 -12.18117,60.67313 c -6.69964,33.37022 -12.40617,60.88447 -12.68117,61.14278 -0.275,0.2583 -16.25,-7.41091 -35.5,-17.04269 z"
     id="path5041"
     inkscape:connector-curvature="0" /><path
     style="fill:#ffffff;fill-opacity:1"
     d="m 152.20218,365.20642 c 0.25453,-0.9625 5.34178,-26.38577 11.30499,-56.49616 l 10.8422,-54.74617 32.25989,-21.50383 c 17.74294,-11.82711 32.48602,-21.50384 32.7624,-21.50384 0.27638,0 0.50251,25.31491 0.50251,56.25535 v 56.25535 l -43.50302,21.74465 c -23.92666,11.95956 -43.75699,21.74465 -44.06739,21.74465 -0.3104,0 -0.35611,-0.7875 -0.10158,-1.75 z"
     id="path5043"
     inkscape:connector-curvature="0" /><path
     style="fill:#ffffff;fill-opacity:1"
     d="m 316.12417,345.10189 -43.25,-21.63472 0.1307,-48.50537 c 0.0719,-26.67796 0.40939,-51.82253 0.75,-55.87683 l 0.6193,-7.37145 31.55517,20.97232 31.55516,20.97232 11.27118,56.23945 c 6.19915,30.9317 11.12432,56.37435 10.94483,56.53922 -0.17948,0.16488 -19.78884,-9.43585 -43.57634,-21.33494 z"
     id="path5045"
     inkscape:connector-curvature="0" /><path
     style="fill:#ffffff;fill-opacity:1"
     d="m 402.6054,125.23043 c -1.52283,-0.77062 -3.66033,-1.46829 -4.75,-1.55038 -1.08968,-0.0821 -1.98123,-0.42061 -1.98123,-0.75229 0,-0.33168 -1.84341,-1.63911 -4.09646,-2.90539 -5.76214,-3.23851 -14.44651,-12.21644 -17.24298,-17.82587 -6.64316,-13.325488 -6.88396,-31.041209 -0.58963,-43.379108 1.22364,-2.398534 2.06004,-4.360971 1.85867,-4.360971 -0.20137,0 2.76959,-3.191856 6.60213,-7.093014 3.83255,-3.901157 7.19327,-7.062674 7.46827,-7.025591 0.275,0.03708 2.975,-1.152269 6,-2.643001 5.11975,-2.523034 14.54527,-5.085969 18,-4.894461 12.33525,0.683788 15.62259,1.314994 20.75,3.984236 2.3375,1.216864 4.25,1.892325 4.25,1.501025 0,-0.391299 0.5625,-0.03992 1.25,0.780834 0.6875,0.820759 3.3497,3.155922 5.91601,5.189252 2.5663,2.03333 6.50172,6.510309 8.74538,9.948842 2.24366,3.438533 4.50441,6.766428 5.02389,7.395322 0.51947,0.628895 0.76305,1.324893 0.54128,1.546662 -0.22177,0.221769 0.25528,2.591238 1.06011,5.265486 1.87037,6.214775 1.87491,16.85898 0.01,23.056192 -0.79943,2.656305 -1.22287,5.202824 -0.94098,5.658931 0.28189,0.456107 0.14847,0.830354 -0.29649,0.831661 -0.44496,0.0013 -2.0881,2.450353 -3.65142,5.442333 -3.62987,6.94709 -11.82527,14.70094 -19.3071,18.26688 -3.21776,1.53363 -6.07548,3.01341 -6.35048,3.28841 -1.79464,1.79464 -24.82278,2.01785 -28.26877,0.27401 z"
     id="path5047"
     inkscape:connector-curvature="0" /></svg>